<?xml version="1.0" encoding="utf-8"?>
<!-- Generator: Adobe Illustrator 25.0.0, SVG Export Plug-In . SVG Version: 6.00 Build 0)  -->
<svg version="1.1" id="Layer_1" xmlns="http://www.w3.org/2000/svg" xmlns:xlink="http://www.w3.org/1999/xlink" x="0px" y="0px"
	 viewBox="0 0 834.4 844.8" style="enable-background:new 0 0 834.4 844.8;" xml:space="preserve">
<style type="text/css">
	.st0{fill:#108EA9;}
	.st1{fill:#27245E;}
	.st2{fill:#FFFFFF;}
</style>
<g id="XMLID_2_">
	<path class="st0" d="M352.4,281.8L87.5,110.1c-4-10.2-7.4-18.8-8.4-22.6c0,0,75.7,36.2,272.1,191
		C351.2,278.4,351.7,279.7,352.4,281.8z M341.7,516.3c7,5.8,23.9,17.9,44.1,20.4c0.2,0-1.9-7.4-25.1-30.7c-5.1,1.8-9,3.7-12.1,5.6
		C345.4,513.5,343.1,515.1,341.7,516.3z M263.4,500.9l-14.7,1.4l96.6,56.7c-9.3-9.3-13.2-18.1-13.2-18.1L263.4,500.9z M239.7,333.7
		l7.2,10.4c0,0,43.5-5.8,77.8-4.7c0,0-88.5-14.7-116.4-23.7c0,0,16.3,37.6,43.5,56.5C251.8,372.2,238,344.4,239.7,333.7z
		 M388.9,252.6c0,0,2.3,28.4,18.3,36.7c-14.2,17.2-38.3-2.1-38.3-2.1c13.3,33.5,47.8,48.5,47.8,48.5c12.8-9,11.6-33,9.7-46.4
		c16.2-8.1,18.4-36.9,18.4-36.9c6.8-17.4,15.5-24.1,22.6-26.3c-2.5-1.4-5.6-3.2-9.8-4.7c-7.7,5.1-18.3,14-20.7,25.8
		c0,0-3.9-12.8,8.6-29.7c-7.5-1.8-16.9-3-28.1-3c-11.4,0-20.9,1.4-28.6,3.2c12.5,16.9,8.6,29.5,8.6,29.5
		c-2.5-11.8-12.8-20.7-20.5-25.8c-4.2,1.8-7.5,3.3-10,4.7C374,228.9,382.3,235.8,388.9,252.6z M492.4,517.7
		c-0.9-0.9-3.3-3.3-8.3-6.3c-2.5-1.4-5.6-3-9.5-4.6c-22.1,22.5-24.4,29.8-24.4,29.8C468.8,534.4,484.6,523.9,492.4,517.7z
		 M481.3,281.6l264.9-171.7c4.2-10.2,7.5-18.8,8.4-22.6c0,0-75.8,36.2-272.3,191.2C482.3,278.4,482,279.7,481.3,281.6z M501.7,540.9
		c0,0-3.9,8.8-13.2,18.1l96.6-56.7l-14.7-1.4L501.7,540.9z M586.8,343.9l7.2-10.4c1.8,10.7-12.1,38.5-12.1,38.5
		c27.2-19,43.5-56.5,43.5-56.5c-27.9,9-116.4,23.7-116.4,23.7C543.3,338.1,586.8,343.9,586.8,343.9z M810,92.8l-7,17.7l-38.3,96.6
		c-9.8,23.5-21.8,44.2-35.5,61.1c-11.1,13.7-23.2,25.3-36.3,34.1c-15.8,10.7-29,15.1-35.8,16.9c-5.3,16.3-15.1,31.8-22.6,42h40.4
		h7.4v7.4v55.3l29,15.3l12.1,6.5l-12.1,6.5l-29.7,16v48.6v4.2l-3.5,2.1l-36.2,22.1l-2.1,1.4l-2.5-0.4l-48.5-5.8l-137.8,80.8
		c-14,44.1-26.3,110.4-26.3,111.1l-7.2,39.7l-7.2-39.7c-0.2-0.7-12.3-67.1-26.3-111.1l-137.6-80.4l-48.5,5.8l-2.5,0.4l-2.1-1.4
		L157,523.3l-3.5-2.1V517v-48.6l-29.7-16l-12.1-6.5l12.1-6.5l29-15.3v-55.3v-7.5h6.8H200c-7.5-10.2-17.4-25.6-22.6-42
		c-6.8-1.8-20-6.1-35.8-16.9c-13-9-25.3-20.4-36.3-34.1c-13.7-17-25.6-37.6-35.5-61.1l-38.3-96.7l-7-17.7l17.2,8.4l17.6,8.6
		c-6.7-21.4-17.4-57.4-18.8-68.1L38.3,26l13.5,8.6c1.1,0.7,115.7,74.3,281.6,203.3l1.8-1.1c-0.5-4.9-0.4-11.9,3.7-18.4
		c2.1-3.5,4.9-6.3,8.6-8.6l-24.2-17.4l-0.2-0.2l-0.2-0.2c-0.5-0.4-12.5-10.2-14.2-27.9l-1.6-16.5l13.3,10l56,42
		c0.7-0.2,1.4-0.4,2.3-0.7c10.7-3.9,22.8-6,36-6c0.9,0,1.8,0,2.6,0c0.9,0,1.8,0,2.6,0c13.2,0,25.3,1.9,36,6c0.9,0.2,1.6,0.5,2.3,0.7
		l55.8-42l13.3-10l-1.6,16.5c-1.6,17.7-13.7,27.6-14.2,27.9l-0.2,0.2l-0.2,0.2l-24.2,17.4c3.5,2.3,6.5,5.1,8.6,8.6
		c3.9,6.5,4.2,13.5,3.7,18.4l1.8,1.1C667,108.8,781.5,35.3,782.8,34.6l13.5-8.6l-2.1,15.8c-1.4,10.7-12.1,46.7-18.6,67.9l17.6-8.6
		L810,92.8z M796.1,107.8l-32.8,16.2c0,0,21.4-68.5,23.5-83.2c0,0-115.3,73.7-285,205.9l-10.7-6c0,0,8.1-24.2-19.5-28.8l35.5-25.5
		c0,0,10-8.1,11.4-22.8l-59,44.2c0,0-2.1-0.9-6-1.9c-12.1-4.6-24.8-5.8-36.3-5.6c-11.6-0.2-24.2,1.1-36.3,5.6c-3.7,1.1-6,1.9-6,1.9
		l-59-44.4c1.4,14.7,11.4,22.8,11.4,22.8l35.5,25.5c-27.6,4.7-19.5,28.8-19.5,28.8l-10.7,6C163,114.4,47.8,40.7,47.8,40.7
		c1.9,14.7,23.5,83.2,23.5,83.2l-33-16.2l38.3,96.6C118.9,304.9,183.2,313,183.2,313c7.4,28.1,32.1,55.7,32.1,55.7h-55.7v59.7
		l-32.8,17.4l33.5,18.1v53l36.2,22.1l50.9-6l142.2,83.2c14.7,44.9,27.6,114.6,27.6,114.6s12.8-69.7,27.6-114.6L587,533l50.9,6
		l36.2-22.1v-53l33.5-18.1l-32.8-17.4v-59.7h-55.7c0,0,24.8-27.6,32.1-55.7c0,0,64.4-8.1,106.6-108.7L796.1,107.8z M450.9,521.2
		l16.7-16.9c-10.7-3.3-25.3-6-45.3-6.3L416,562l-4-64.1c-19,0.2-33.4,2.5-43.9,5.4l17.4,17.6c0,0,29.5,29.8-8.3,41.8
		c7.4,5.1,15.8,9.7,25.5,12.8h-17.4c2.8,4.4,6,10.2,9.5,17.9c4.2-3.5,12.1-8.6,22.5-8.6c9,0,16.7,4.4,21.8,8.3
		c3.5-7.7,6.5-13.3,9.3-17.6h-16.9c10-3.2,18.8-8.1,26.3-13.5C422.5,550,450.9,521.2,450.9,521.2z M450.4,546.7
		c4.7,4.4,10,7.5,14.6,9.7c11.4-9.8,19.1-20.4,23.7-27.4C470.2,541.8,450.4,546.7,450.4,546.7z M342.2,524.9
		c3.7,6.1,12.6,20,27.2,32.3c4.9-2.1,11.2-5.4,16.5-10.5C386,546.7,361.7,540.7,342.2,524.9z"/>
	<path class="st1" d="M763.3,123.9c0,0,21.6-68.5,23.5-83.2c0,0-115.3,73.7-285,205.9l-10.7-6c0,0,8.1-24.1-19.5-28.8l35.5-25.5
		c0,0,10-8.1,11.4-22.8l-59,44.2c0,0-2.3-0.9-6-1.9c-12.1-4.6-24.8-5.8-36.3-5.6c-11.6-0.2-24.2,1.1-36.3,5.6c-3.9,1.1-6,1.9-6,1.9
		l-59-44.2c1.4,14.7,11.4,22.8,11.4,22.8l35.5,25.5c-27.6,4.6-19.5,28.8-19.5,28.8l-10.7,6C163,114.4,47.6,40.7,47.6,40.7
		c2.1,14.7,23.5,83.2,23.5,83.2l-32.8-16.2l38.3,96.6C118.7,304.9,183.2,313,183.2,313c7.4,28.1,32.1,55.7,32.1,55.7h-55.7v59.7
		l-32.8,17.4l33.5,18.1v53l36.2,22.1l50.9-6l142.2,83.2c14.7,44.9,27.6,114.6,27.6,114.6s12.8-69.7,27.6-114.6L587,533l50.9,6
		l36.2-22.1v-53l33.5-18.1l-32.8-17.4v-59.7h-55.7c0,0,24.8-27.6,32.1-55.7c0,0,64.3-8.1,106.6-108.7l38.3-96.6L763.3,123.9z
		 M482.3,278.4c196.5-155,272.3-191.2,272.3-191.2c-0.9,3.9-4.2,12.5-8.4,22.6L481.3,281.6C482,279.7,482.3,278.4,482.3,278.4z
		 M479.9,363.4v-7.2h6.3h8.1h6.3v7.2h-6.3v20.2v0.2h-8.1v-20.4H479.9z M529.1,399.9v17.2h-36.7v14.2l36.5,0.5v18.6l-36.5-1.8V463
		l36.7,1.6l0.2,18.3l-56.2-2.5v-72l-8.3-8.4H529.1z M512.7,363.4v-7.2h6.3h8.1h6.3v7.2h-6.3v20.2v0.2H519v-20.4H512.7z M492.5,517.7
		c-7.7,6.1-23.5,16.7-42.1,19c0,0,2.3-7.4,24.4-29.8c3.9,1.6,7,3.2,9.5,4.7C489.2,514.4,491.7,516.9,492.5,517.7z M416.5,417.1v62.3
		h-18.6v-71.3l-8.3-8.4h58.6l8.3,8.4v71.5h-19.1v-62.5H416.5z M399.3,384.1h-7.9l-4.4-8.4h-1.4h-2.3v8.4h-8.1v-20.7v-7.2h8.1h11.1
		l3.3,3.3v3.9v12.3h-3L399.3,384.1z M430.9,376.6v7.2h-9.7h-8.1v-27.6h8.1v20.4H430.9z M437.4,291.6c0,0,12.1-7.7,13.7-24.4
		C451.1,267.2,466.4,294.2,437.4,291.6z M451.1,384.1h-1.9h-2.8l-3.3-3.3v-4.4v-12.8v-7.2v-0.2l0.2,0.2h7.9h11.1l3.3,3.3v3.9v20.5
		h-8.1H451.1z M376.8,221.5c7.7,5.1,18.1,14,20.5,25.8c0,0,3.9-12.6-8.6-29.5c7.7-1.8,17.2-3.2,28.6-3.2c11.2,0,20.5,1.2,28.1,3
		c-12.5,16.9-8.6,29.7-8.6,29.7c2.5-11.8,13-20.7,20.7-25.8c4.2,1.6,7.4,3.3,9.8,4.7c-7.2,2.3-15.8,9-22.6,26.3
		c0,0-2.3,28.8-18.4,36.9c1.9,13.3,3.2,37.4-9.7,46.4c0,0-34.4-14.9-47.8-48.5c0,0,24.1,19.3,38.3,2.1c-16-8.3-18.3-36.7-18.3-36.7
		c-6.7-16.9-15.1-23.7-22.1-26.2C369.3,225.2,372.6,223.5,376.8,221.5z M381.9,267.2c1.6,16.7,13.7,24.4,13.7,24.4
		C366.6,294.2,381.9,267.2,381.9,267.2z M374.4,399.9l8.3,8.4v43h-7.5l11.6,29.3l-19.8-0.2l-11.6-28.4h-12.5v29.1l-18.6,1.1v-73.9
		l-8.3-8.4H374.4z M385.8,536.7c-20.2-2.5-37-14.6-44.1-20.4c1.4-1.2,3.7-2.8,6.8-4.7c3.2-1.9,7-3.9,12.1-5.6
		C383.9,529.3,386,536.7,385.8,536.7z M316.1,368.3V356h8.1v27.9h-8.1v-8.4h-6.3v8.4h-8.1V356h8.1v12.3H316.1z M345.8,375.7v8.4
		h-8.1v-20.5v-7.2h8.1H357l3.3,3.3v3.9v20.5h-8.1v-8.4H345.8z M108,228.2c-24.8-58.3-36.2-84.4-36.2-84.4l39,20
		c0,0-13.5-30.5-23-53.5l-0.4-0.2c-4-10.2-7.4-18.8-8.4-22.6c0,0,75.7,36.2,272.3,191c0,0,0.4,1.2,1.1,3.2l8.4,19l-216-117.3
		L312,303.9l-94.6-9.3C217.4,294.6,133,286.5,108,228.2z M235.8,490.7l-19.5,1.9v-48.3l-20.4,9.5v41.6l-19.5,1.9v-44.1l-14.6-7
		l14.6-6.5v-56.5h19.3v47.9l20.4-9v-39h19.5h0.2V490.7z M208.3,315.6c27.9,9,116.4,23.7,116.4,23.7c-34.2-1.1-77.8,4.7-77.8,4.7
		l-7.2-10.4c-1.8,10.7,12.1,38.4,12.1,38.4C224.6,353.2,208.3,315.6,208.3,315.6z M274.6,362.9v13.9h4.9v-2.6h7.9v9.8h-17.4
		l-3.3-3.3V356h20.9v9.1h-7.9v-2.3H274.6z M241.6,399.9h58.6l8.3,8.4V483l-50.6,4.2l-8.1-8.4v-70.4L241.6,399.9z M248.7,502.3
		l14.7-1.4l68.6,40c0,0,3.9,8.8,13.2,18.1L248.7,502.3z M342.2,524.8c19.5,16,43.7,21.9,43.7,21.9c-5.3,5.1-11.6,8.4-16.5,10.5
		C354.9,544.9,345.9,531.1,342.2,524.8z M416.5,662.1c-5.4-22.1-10.9-39.3-15.8-52.7c3.3-2.6,9-5.6,16.5-5.6c7,0,11.8,3,14.9,6
		C427,623.1,421.8,640.1,416.5,662.1z M448.3,575.5c-2.8,4.2-5.8,9.8-9.3,17.6c-5.1-3.9-12.8-8.3-21.8-8.3
		c-10.4,0-18.3,5.1-22.5,8.6c-3.5-7.7-6.7-13.5-9.5-17.9h17.4c-9.7-3.2-18.1-7.7-25.5-12.8c37.7-11.9,8.3-41.8,8.3-41.8l-17.4-17.6
		c10.5-3,24.9-5.3,43.9-5.4l4,64.1l6.3-63.9c20,0.4,34.6,3,45.3,6.3l-16.7,16.9c0,0-28.4,28.6,6.3,41.1c-7.3,5.3-15.7,10-25.3,13.2
		H448.3z M465,556.4c-4.6-2.1-9.8-5.3-14.6-9.7c0,0,20-4.9,38.3-17.7C484.1,535.8,476.4,546.5,465,556.4z M488.5,559
		c9.3-9.3,13.2-18.1,13.2-18.1l68.6-40l14.7,1.4L488.5,559z M590.9,417h-16V487l-20.4-1.9V417h-16.7v-17h53V417z M567.5,366.4v7.2
		h-13v3.2h13v7.2h-13h-0.7h-7.4V356h7.4h0.7h13v7.4h-13v3H567.5z M656.7,383.2v0.2v17.2v7.5h-18.8v-7.5h-19.1v14.2v7l19.1,8.3v-0.2
		l19,8.3l15.6,7l-15.8,7.5v44.1l-57.9-7.4v-25.3l19.5,2.1v8.1l19.7,2.3v-24.4l-19.7-8.8l-19.5-7.7V391l-7.7-7.7H656.7z M582.1,372.2
		c0,0,13.9-27.7,12.1-38.4l-7.2,10.4c0,0-43.5-5.8-77.8-4.7c0,0,88.5-14.7,116.4-23.7C625.6,315.6,609.3,353.2,582.1,372.2z
		 M725.9,228.7c-24.9,58.3-109.4,66.4-109.4,66.4l-94.6,9.3l167-120.8l-216,117.3l8.4-19l264.6-171.5c-9.5,23-23,53.5-23,53.5
		l39-20.2C761.9,143.8,750.4,169.9,725.9,228.7z M352.4,281.8L87.9,110.3c0,0,0,0,0-0.1L352.4,281.8z M288.7,465.2l-20.2,0.7v-48.8
		h20.9L288.7,465.2z M430.9,575.5h1c-0.3,0.1-0.7,0.2-1,0.4V575.5z M363.3,433.8h-20.5v-16.7h20.7L363.3,433.8z M457.4,376.4h-6.3
		v-13h4.4h1.9V376.4z M387.7,363.4h1.9v5.1h-6.3v-5.1H387.7z M350.3,363.4h1.8v5.1h-6.3v-5.1H350.3z"/>
	<path class="st2" d="M804.2,81.2l-7.7,3.8c6.2-21.2,9.7-35.1,10.5-41.5l2.1-15.8L812.8,0l-23.6,15l-13.5,8.6l0,0
		c-8.3,5.3-113.5,73.4-267,191.9c-0.6-1.2-1.2-2.5-2-3.7l0,0l0,0c0,0,0,0,0-0.1l12.1-8.7l0.9-0.6l0.5-0.5
		c5.5-4.4,16.8-17.3,18.5-36.5l1.6-16.5l2.8-29.3l-23.5,17.7l-13.3,10l-50.4,37.9c-10.8-3.4-22.9-5.2-35.9-5.2h-2.6h-2.6
		c-12.7,0-24.7,1.8-35.9,5.2l-50.6-37.9l-13.3-10l-23.5-17.7l2.8,29.3l1.6,16.5c1.9,19.2,13.1,32,18.5,36.4l0.5,0.5l0.9,0.6
		l12.1,8.7c-0.8,1.2-1.4,2.5-2.1,3.8C177.1,100.7,71.2,31.6,59.3,23.9L59,23.7l-0.1,0l-0.1-0.1L45.3,15L21.8,0l3.7,27.7l2.1,15.8
		c1,7.8,5.9,25.5,10.6,41.6l-8-3.9L0,66.4l12.4,31.2l7,17.7l38.3,96.7l0,0.1l0,0.1c10.3,24.6,22.8,46.2,37.3,64.2
		c11.7,14.5,24.8,26.8,39.1,36.6l0,0l0,0c12.9,8.7,24.4,13.8,33.1,16.7c2.5,6.5,5.6,12.7,8.8,18.4h-16.5h-6.8h-13v13v7.5v47.5
		l-22,11.6l0,0l0,0l-12.1,6.5l-21.4,11.5l21.4,11.5l12.1,6.5l22.8,12.3V517v4.2v7.4l6.3,3.8l3.5,2.1l35.9,22l1.9,1.3l4.1,2.8
		l4.9-0.7l2.3-0.3l44-5.3l129.5,75.7c10.9,35.6,20.5,83.8,24.2,103.5c0.1,0.7,0.2,1.1,0.3,1.4l7.2,39.5l12.8,70.5l12.8-70.5
		l7.2-39.7l0.2-1.2v-0.1c1.4-8.3,12.2-64,24.2-103.5l129.7-76l44,5.3l2.3,0.3l4.9,0.7l4.1-2.8l1.9-1.3l35.9-22l3.5-2.1l6.3-3.8v-7.4
		v-4.2v-40.9l22.8-12.3l12.1-6.5l21.4-11.5l-21.4-11.5l-12.1-6.5l0,0l0,0l-22-11.6v-47.5v-7.4v-13h-13h-7.4h-16.5
		c3.2-5.7,6.2-11.9,8.8-18.4c8.7-2.9,20.2-7.9,33-16.7c13.8-9.2,27-21.5,39.2-36.7c14.3-17.6,26.9-39.3,37.3-64.3l0-0.1l0-0.1
		l38.3-96.6l7-17.7l12.4-31.2L804.2,81.2z M802.9,110.6l-38.3,96.6c-9.8,23.5-21.8,44.2-35.5,61.1c-11.1,13.7-23.2,25.3-36.3,34.1
		c-15.8,10.7-29,15.1-35.8,16.9c-5.3,16.3-15.1,31.8-22.6,42h40.4h7.4v7.4v55.3l29,15.3l12.1,6.5l-12.1,6.5l-29.7,16v48.6v4.2
		l-3.5,2.1l-36.2,22.1l-2.1,1.4l-2.5-0.4l-48.5-5.8l-137.8,80.8c-14,44.1-26.3,110.4-26.3,111.1l-7.2,39.7l-7.2-39.7
		c-0.2-0.7-12.3-67.1-26.3-111.1l-137.6-80.4l-48.5,5.8l-2.5,0.4l-2.1-1.4L157,523.3l-3.5-2.1V517v-48.6l-29.7-16l-12.1-6.5
		l12.1-6.5l29-15.3v-55.3v-7.5h6.8H200c-7.5-10.2-17.4-25.6-22.6-42c-6.8-1.8-20-6.1-35.8-16.9c-13-9-25.3-20.4-36.3-34.1
		c-13.7-17-25.6-37.6-35.5-61.1l-38.3-96.7l-7-17.7l17.2,8.4l17.6,8.6c-6.7-21.4-17.4-57.4-18.8-68.1L38.3,26l13.5,8.6
		c1.1,0.7,115.7,74.3,281.6,203.3l1.8-1.1c-0.5-4.9-0.4-11.9,3.7-18.4c2.1-3.5,4.9-6.3,8.6-8.6l-24.2-17.4l-0.2-0.2l-0.2-0.2
		c-0.5-0.4-12.5-10.2-14.2-27.9l-1.6-16.5l13.3,10l56,42c0.7-0.2,1.4-0.4,2.3-0.7c10.7-3.9,22.8-6,36-6c0.9,0,1.8,0,2.6,0
		c0.9,0,1.8,0,2.6,0c13.2,0,25.3,1.9,36,6c0.9,0.2,1.6,0.5,2.3,0.7l55.8-42l13.3-10l-1.6,16.5c-1.6,17.7-13.7,27.6-14.2,27.9
		l-0.2,0.2l-0.2,0.2l-24.2,17.4c3.5,2.3,6.5,5.1,8.6,8.6c3.9,6.5,4.2,13.5,3.7,18.4l1.8,1.1C667,108.8,781.5,35.3,782.8,34.6
		l13.5-8.6l-2.1,15.8c-1.4,10.7-12.1,46.7-18.6,67.9l17.6-8.6l16.9-8.3L802.9,110.6z M316.1,375.5h-6.3v8.4h-8.1V356h8.1v12.3h6.3
		V356h8.1v27.9h-8.1V375.5z M381.9,267.2c1.6,16.7,13.7,24.4,13.7,24.4C366.6,294.4,381.9,267.2,381.9,267.2z M241.6,399.9l8.3,8.4
		v70.4l8.1,8.4l50.6-4.2v-74.6l-8.3-8.4H241.6z M288.7,465.2l-20.2,0.7v-48.8h20.9L288.7,465.2z M437.4,291.6
		c0,0,12.1-7.7,13.7-24.4C451.1,267.2,466.4,294.4,437.4,291.6z M421.3,383.8h-8.1v-27.6h8.1v20.4h9.8v7.2H421.3z M216.4,383.4h19.5
		v107.3l-19.5,1.9v-48.3l-20.4,9.5v41.6l-19.5,1.9v-44.1l-14.6-7l14.6-6.5v-56.5h19.3v47.9l20.4-9h0.2V383.4z M217.2,294.8
		c0,0-84.4-8.1-109.4-66.4c-24.6-58.5-36-84.6-36-84.6l39,20.2c0,0-13.5-30.5-23-53.5l264.6,171.5l8.4,19l-216-117.6l167,120.8
		L217.2,294.8z M360.2,384.1v-20.5v-3.9l-3.3-3.3h-11.1h-8.1v7.2v20.5h8.1v-8.4h6.3v8.4H360.2z M345.8,368.5v-5.1h4.4h1.9v5.1H345.8
		z M279.7,365.3v-2.3h-4.9v13.9h4.9v-2.6h7.9v9.8h-17.4l-3.3-3.5v-24.4h20.7v9.1H279.7z M417.2,603.8c6.8,0,11.8,3,14.9,6
		c-4.9,13.3-10.2,30.4-15.6,52.3c-5.4-22.1-10.7-39.3-15.8-52.7C404,606.7,409.7,603.8,417.2,603.8z M527.1,356.2h6.3v7.2h-6.3v20.2
		v0.2H519v-20.4h-6.3v-7.2h6.3H527.1z M537.7,399.9h53.2v17h-16V487l-20.4-1.9V417h-16.7h-0.2V399.9z M554.5,363.4v3h13v7.2h-13v3.2
		h13v7.2h-13h-0.7h-7.4V356h7.4h0.7h13v7.4H554.5z M591,383.1h65.7v0.2v17.2v7.5h-18.8v-7.5h-19.1v14.2v7l19.1,8.3v-0.2l19,8.3
		l15.6,7.2l-15.8,7.5v44.1l-57.9-7.4V464l19.5,2.1v8.1l19.7,2.3v-24.4l-19.7-8.8l-19.5-7.7v-44.8L591,383.1z M722.9,163.8l39-20
		c0,0-11.4,26.2-36.2,84.4c-24.8,58.3-109.4,66.4-109.4,66.4l-94.6,9.3l167-120.8l-216,117.3l8.4-19l264.8-171.2
		C736.4,133.2,722.9,163.8,722.9,163.8z M486.2,383.8v-20.4h-6.3v-7.2h6.3h8.1h6.3v7.2h-6.3v20.2v0.2H486.2z M448.1,399.9l8.3,8.4
		v71.5h-19.1v-62.5h-20.7v62.3h-18.6v-71.3l-8.3-8.4H448.1z M391.4,384.3h7.7l-4.4-8.4h3v-12.3v-3.9l-3.3-3.3h-11.1h-8.1v7.2v20.5
		h8.1v-8.4h2.3h1.4l4.4,8.4V384.3z M389.5,368.5h-6.3v-5.1h4.6h1.8V368.5z M382.8,451.4v-43l-8.3-8.4h-58.6l8.4,8.4v73.9l18.6-1.1
		v-29.1h12.5l11.6,28.4l19.8,0.2l-11.6-29.3H382.8z M363.3,433.8h-20.5v-16.7h20.7L363.3,433.8z M465.5,363.4v-3.9l-3.3-3.3h-11.1
		h-7.9L443,356v0.4v7.2v12.8v4.4l3.3,3.3h2.8h1.9h6.5h7.9V363.4z M457.4,376.4h-6.3v-13h4.4h1.9V376.4z M529.1,464.5l0.2,18.3
		l-56.2-2.5v-72l-8.3-8.4h64.3v17.2h-36.7v14.2l36.5,0.5v18.6l-36.5-1.8V463L529.1,464.5z"/>
</g>
</svg>
