<?xml version="1.0" encoding="utf-8"?>
<!-- Generator: Adobe Illustrator 25.0.0, SVG Export Plug-In . SVG Version: 6.00 Build 0)  -->
<svg version="1.1" id="Layer_1" xmlns="http://www.w3.org/2000/svg" xmlns:xlink="http://www.w3.org/1999/xlink" x="0px" y="0px"
	 viewBox="0 0 720.2 555.5" style="enable-background:new 0 0 720.2 555.5;" xml:space="preserve">
<style type="text/css">
	.st0{fill:#FFFFFF;}
	.st1{fill:#BDBFC1;}
	.st2{fill:#061922;}
	.st3{fill:#006BB5;}
	.st4{fill:#EC174C;}
</style>
<g id="XMLID_2_">
	<g>
		<path class="st0" d="M365.4,85.2h6.5v27.1h-6.5V85.2z M440.3,180.7c12.7-16.5,20-36.1,20.9-56.8h-41.8
			C420.4,144.6,427.6,164.2,440.3,180.7z M479.2,119.1c0,31.8-12.4,61.7-34.9,84.2s-52.4,34.9-84.2,34.9
			c-31.8,0-61.7-12.4-84.2-34.9c-0.2-0.2-0.5-0.5-0.7-0.8c0.2,0,0.4,0,0.6,0.1c-3.7-3.7-7.1-7.6-10.2-11.8c-0.2,0-0.4,0-0.6-0.1
			c-15.5-20.5-24-45.4-24-71.6c0-31.8,12.4-61.7,34.9-84.2S328.3,0,360.1,0s61.7,12.4,84.2,34.9C466.8,57.4,479.2,87.3,479.2,119.1z
			 M471.1,119c0-61.3-49.7-111-111-111s-111,49.7-111,111s49.7,111,111,111S471.1,180.3,471.1,119z M279.9,57.3
			c-12.7,16.5-20,36.1-20.9,56.8h41.8C299.8,93.4,292.6,73.8,279.9,57.3z M259,123.9c1,20.7,8.2,40.3,20.9,56.8
			c12.7-16.5,19.9-36.1,20.9-56.8H259z M409.7,123.9c1,23.6,9.4,45.9,24.2,64.4c-18.1,19.3-42.6,30.6-68.9,31.9v-29h-9.7v29
			c-26.4-1.3-50.8-12.6-68.9-31.9c14.8-18.5,23.2-40.8,24.2-64.4v-9.7c-1-23.6-9.4-45.9-24.2-64.4c18.1-19.3,42.6-30.6,68.9-31.9
			v28.7h9.7V17.9c26.3,1.3,50.8,12.6,68.9,31.9c-14.8,18.5-23.2,40.8-24.2,64.4V123.9z M401.6,65.4c0-5.7-2.3-8-7.9-8h-67.4
			c-5.5,0-7.8,2.3-7.8,8v107.3c0,5.7,2.2,8,7.8,8h67.4c5.6,0,7.9-2.3,7.9-8v-38.2h-13.3V169h-56.6V69h56.6v34.5v0.1h13.3V65.4z
			 M348.6,152.4V72.5h-13.3v92.6h49.5v-12.7H348.6z M372,125l-0.1,23.8h12.9V72.5h-32.1l-0.3,76.3h12.9l0.2-23.8H372z M461.2,114.1
			c-1-20.7-8.2-40.3-20.9-56.8c-12.7,16.5-19.9,36.1-20.9,56.8H461.2z"/>
		<path class="st1" d="M432.6,252c24.7-0.5,49.7-1.2,74.2-2.1v1.7c-24.1,0.9-48.4,1.6-72.3,2h-0.3v214.3h-1.6V252z M386.7,252.5
			c-8.9,0.1-17.9,0.1-26.6,0.1c-10.4,0-21.1,0-31.8-0.1v214.9h1.6V254.2h0.3c10.7,0.1,21.5,0.1,32.1,0.1c8.9,0,17.8,0,26.6-0.1h0.3
			c7.5,0,13.9,1.7,19.4,5.2c-6.1-4.6-13.2-6.9-21.6-6.9H386.7z M687.7,239.1c-1.1,0-2.1,0-3.2,0.1c-10.1,0.8-20.3,1.6-30.4,2.4
			c-9.5,0.7-17.6,4.5-24.1,11.2c-6.5,6.6-9.7,14-9.7,22.7v67.6c0,7.1,2,13.2,6.2,18.5c-3.1-4.8-4.6-10.3-4.6-16.4v-67.6
			c0-8.9,3.2-16.4,9.9-23.1c6.6-6.8,14.8-10.7,24.4-11.4c10-0.7,20.3-1.6,30.5-2.3c1.1-0.1,2.1-0.1,3.2-0.1c5.9,0,11.1,1.4,15.7,4.3
			C700.4,241,694.6,239.1,687.7,239.1z M576.4,246.6c-19.2,1.1-38.8,2-58.4,2.8v221l1.6,0.1V251.1h0.3c19.7-0.8,39.5-1.7,58.6-2.8
			c0.8-0.1,1.6-0.1,2.4-0.1c6.5,0,12.2,1.5,17.2,4.6c-5.5-4.2-11.9-6.3-19.4-6.3C578,246.5,577.2,246.6,576.4,246.6z M224.1,250.3
			v219.4l1.6-0.1V251.9h0.3c19.4,0.7,39.1,1.2,58.6,1.6c7.3,0.1,13.8,2,19.4,5.6c-6.1-4.6-13.4-7-21.6-7.2
			C263,251.5,243.4,251,224.1,250.3z M180.1,248.5v222.8l1.6-0.1V250h0.3c9.8,0.5,19.9,0.9,30.1,1.3v-1.5
			C201.6,249.4,190.8,249,180.1,248.5L180.1,248.5z M94,476.3l1.6-0.1V245.1h0.3c9.5,0.6,19.4,1.3,29.4,1.9v-1.5
			c-10.5-0.6-21-1.3-31.3-2V476.3z M32.4,238.9c-8.1,0-14.8,2.6-20.4,7.9c-6.4,5.9-9.6,13.5-9.6,22.8v180.7c0,7.6,2.1,14.1,6.3,19.4
			C5.6,464.8,4,459,4,452.4V271.8c0-9.5,3.3-17.2,9.7-23.1c5.8-5.5,12.6-8.1,20.8-8.1c1.1,0,2.3,0,3.4,0.1c14.2,1.1,29,2.3,44.1,3.4
			v-1.5c-15.4-1.1-31-2.3-46.3-3.6C34.6,238.9,33.5,238.9,32.4,238.9z"/>
		<path class="st2" d="M177.7,473.9c12.3-0.6,24.5-1.1,36.8-1.6V247.5c-12.3-0.5-24.5-1-36.8-1.6V473.9z M180.1,248.5L180.1,248.5
			c10.7,0.5,21.5,0.9,32,1.3v1.5c-10.2-0.4-20.3-0.8-30.1-1.3h-0.3v221.2l-1.6,0.1V248.5z M601.7,367c7.1-6.4,10.7-14.4,10.7-23.9
			v-67.4c0-9.3-3.6-17-10.7-23.1c-6.9-6.2-15.4-9-25.4-8.4c-20.2,1.1-40.4,2.1-60.7,2.9v225.6c12.1,0.5,24.1,1,36.2,1.6v-97.1
			c10,32.4,20,65.3,30,98.7c12,0.7,24.1,1.4,36.1,2.2c-10.5-35-21-69.2-31.5-103C592.1,373.7,597.2,371.1,601.7,367z M576.3,343.4
			c-8.2,0.1-16.3,0.1-24.5,0.2v-65.4c8.2-0.3,16.3-0.6,24.5-0.9C576.3,299.3,576.3,321.4,576.3,343.4z M580.9,248.2
			c-0.8,0-1.6,0-2.4,0.1c-19.1,1.1-38.9,2-58.6,2.8h-0.3v219.4l-1.6-0.1v-221c19.6-0.8,39.2-1.7,58.4-2.8c0.8,0,1.6-0.1,2.3-0.1
			c7.5,0,13.9,2.1,19.4,6.3C593.1,249.7,587.4,248.2,580.9,248.2z M720.2,305.7v-36.1c0-10-3.6-18.2-10.7-24.5
			c-6.9-6.5-15.3-9.3-25.3-8.4c-10.1,0.8-20.2,1.7-30.4,2.4c-10.1,0.8-18.7,4.8-25.6,12c-6.9,7-10.4,15.1-10.4,24.4V343
			c0,9.5,3.5,17.5,10.4,24.1c6.9,6.6,15.5,10,25.6,10.1c10.1,0.1,20.2,0.2,30.4,0.3V448c-10.1-0.6-20.2-1.2-30.4-1.7v-34.5
			c-12-0.4-24-0.8-36-1.1v33.8c0,9.5,3.5,17.7,10.4,24.7s15.5,10.9,25.6,11.7s20.2,1.6,30.4,2.4c9.9,0.8,18.4-1.8,25.3-8.2
			c7.1-6.3,10.7-14.6,10.7-24.8V378c0-10-3.6-18.5-10.7-25.3c-6.9-7.1-15.3-10.4-25.3-10.3c-10.1,0.1-20.2,0.2-30.4,0.3v-69
			c10.1-0.6,20.2-1.1,30.4-1.7v35.2C696.3,306.7,708.2,306.2,720.2,305.7z M656.2,243.1c-9.6,0.7-17.8,4.6-24.4,11.4
			c-6.7,6.7-9.9,14.2-9.9,23.1v67.6c0,6.1,1.5,11.6,4.6,16.4c-4.2-5.3-6.2-11.4-6.2-18.5v-67.6c0-8.7,3.2-16.1,9.7-22.7
			c6.5-6.7,14.6-10.5,24.1-11.2c10.1-0.8,20.3-1.6,30.4-2.4c1.1-0.1,2.1-0.1,3.2-0.1c6.9,0,12.7,1.9,17.9,5.9
			c-4.6-2.9-9.8-4.3-15.7-4.3c-1.1,0-2.1,0-3.2,0.1C676.5,241.5,666.2,242.4,656.2,243.1z M307.9,259.2c-7-6.3-15.5-9.6-25.5-9.8
			c-20.3-0.4-40.5-1-60.8-1.7V472c12.1-0.4,24.1-0.8,36.2-1.1v-95.2c8.2,0,16.4-0.1,24.6-0.1c10,0,18.5-3.1,25.5-9.1
			c7.2-6.1,10.8-13.5,10.8-22.3v-62.8C318.7,272.8,315.1,265.4,307.9,259.2z M282.5,344.1c-8.2,0-16.4-0.1-24.6-0.1v-63.4
			c8.2,0.2,16.4,0.3,24.6,0.4V344.1z M284.6,253.5c-19.5-0.4-39.2-0.9-58.6-1.6h-0.3v217.7l-1.6,0.1V250.3
			c19.3,0.7,38.9,1.2,58.3,1.6c8.2,0.2,15.5,2.6,21.6,7.2C298.4,255.5,291.9,253.6,284.6,253.5z M10.4,245.1
			C3.5,251.4,0,259.7,0,269.6v180.6c0,10.2,3.5,18.5,10.4,24.8c6.9,6.3,15.4,9,25.5,8.1c16.2-1.4,32.3-2.6,48.5-3.8v-34.1
			c-16.2,0.8-32.4,1.7-48.5,2.7v-176c16.2,1,32.3,1.9,48.5,2.7v-34.1c-16.2-1.1-32.4-2.4-48.5-3.8C25.8,235.8,17.3,238.6,10.4,245.1
			z M82,244.1c-15.1-1.1-29.9-2.3-44.1-3.4c-1.1-0.1-2.3-0.1-3.4-0.1c-8.2,0-15,2.6-20.8,8.1C7.3,254.6,4,262.3,4,271.8v180.6
			c0,6.6,1.6,12.4,4.7,17.3c-4.2-5.3-6.3-11.8-6.3-19.4V269.6c0-9.3,3.2-16.9,9.6-22.8c5.6-5.3,12.3-7.9,20.4-7.9
			c1.1,0,2.2,0,3.3,0.1c15.3,1.3,30.9,2.5,46.3,3.6V244.1z M127.7,243.3c-12-0.7-24-1.5-36.1-2.3v237.9c26.2-1.8,52.5-3.4,78.8-4.7
			v-32.7c-14.2,0.5-28.5,1.1-42.7,1.7V243.3z M125.3,247c-10-0.6-19.9-1.3-29.4-1.9h-0.3v231.1l-1.6,0.1V243.5
			c10.3,0.7,20.8,1.4,31.3,2V247z M412.2,259.2c-7-6.1-15.5-9.2-25.5-9.1c-20.3,0.1-40.5,0.1-60.8-0.1v219.7
			c12.1-0.1,24.2-0.2,36.2-0.1v-94c8.2,0,16.4,0,24.6,0c10,0,18.5-3,25.5-9.1c7.2-6,10.8-13.5,10.8-22.4v-63
			C423,272.5,419.4,265.2,412.2,259.2z M386.8,344.2c-8.2,0-16.4,0-24.6,0v-62.7c8.2,0,16.4,0,24.6-0.1V344.2z M389.2,254.2h-0.3
			c-8.8,0.1-17.7,0.1-26.6,0.1c-10.6,0-21.4,0-32.1-0.1h-0.3v213.2h-1.6V252.5c10.7,0.1,21.4,0.1,31.8,0.1c8.7,0,17.7,0,26.6-0.1
			h0.3c8.4,0,15.5,2.3,21.6,6.9C403.1,255.9,396.7,254.2,389.2,254.2z M430.2,470.2c26.4,0.5,52.7,1.2,79,2.2v-32.2
			c-14.3-0.4-28.5-0.7-42.8-1v-63.5c8.2,0,22.8,0.1,31,0.1c0-10.7,0-21.3,0-32c-8.2,0-22.8,0.1-31,0.1v-63.5
			c14.3-0.3,28.5-0.6,42.8-1v-32.2c-26.3,1-52.7,1.8-79,2.2V470.2z M432.6,252c24.7-0.5,49.7-1.2,74.2-2.1v1.7
			c-24.1,0.9-48.4,1.6-72.3,2h-0.3v214.3h-1.6V252z M360.1,230c61.2,0,111-49.8,111-111S421.3,8,360.1,8s-111,49.8-111,111
			S298.9,230,360.1,230z M440.3,180.7c-12.7-16.5-19.9-36.1-20.9-56.8h41.8C460.3,144.6,453,164.2,440.3,180.7z M440.3,57.3
			c12.7,16.5,19.9,36.1,20.9,56.8h-41.8C420.4,93.4,427.6,73.8,440.3,57.3z M355.3,17.9v28.7h9.7V17.9c26.3,1.3,50.8,12.6,68.9,31.9
			c-14.8,18.5-23.2,40.8-24.2,64.4v9.7c1,23.6,9.4,45.9,24.2,64.4c-18.1,19.3-42.6,30.6-68.9,31.9v-29h-9.7v29
			c-26.4-1.3-50.8-12.6-68.9-31.9c14.8-18.5,23.2-40.8,24.2-64.4v-9.7c-1-23.6-9.4-45.9-24.2-64.4C304.5,30.5,329,19.2,355.3,17.9z
			 M279.9,57.3c12.7,16.5,19.9,36.1,20.9,56.8H259C259.9,93.4,267.2,73.8,279.9,57.3z M259,123.9h41.8c-1,20.7-8.2,40.3-20.9,56.8
			C267.2,164.2,260,144.6,259,123.9z"/>
		<path class="st3" d="M720.2,509.8v12.5c-238.6-29.8-481.6-29.8-720.2,0v-12.5C238.6,482.2,481.6,482.2,720.2,509.8z M431.6,214.8
			c-5.7,4.3-11.9,8.1-18.3,11.3c102.7-1.7,205.2-8.5,306.9-20.2v-12.5C624.5,205.2,528.1,212.4,431.6,214.8z M288.6,214.8
			c-96.5-2.4-192.9-9.6-288.6-21.4v12.5c101.7,11.7,204.2,18.5,306.9,20.2C300.5,222.9,294.3,219.1,288.6,214.8z M326.3,180.7h67.4
			c5.6,0,7.9-2.3,7.9-8v-38.2h-13.3V169h-56.6V69h56.6v34.5v0.1h13.3V65.4c0-5.7-2.3-8-7.9-8h-67.4c-5.5,0-7.8,2.3-7.8,8v107.3
			C318.5,178.4,320.7,180.7,326.3,180.7z"/>
		<path class="st4" d="M633.3,543.7v11.8c-180.3-46.7-366-46.7-546.4,0c0-3.9,0-7.9,0-11.8C267.3,498.2,452.9,498.2,633.3,543.7z
			 M265.6,190.8C206,185.5,146.7,175.3,87.9,160c0,3.9,0,7.9,0,11.8c62.2,15.7,124.9,25.9,187.9,30.8
			C272.1,198.9,268.7,195,265.6,190.8z M456.6,190.8c-3.1,4.2-6.5,8.1-10.2,11.8c63-4.9,125.7-15.1,187.9-30.8V160
			C575.5,175.3,516.2,185.5,456.6,190.8z M365.3,148.8h-12.9l0.3-76.3h32.1v76.3h-12.9L372,125h-6.5L365.3,148.8z M365.4,112.3h6.5
			V85.2h-6.5V112.3z M384.8,152.4h-36.2V72.5h-13.3v92.6h49.5V152.4z"/>
	</g>
</g>
</svg>
