<?xml version="1.0" encoding="utf-8"?>
<!-- Generator: Adobe Illustrator 25.0.0, SVG Export Plug-In . SVG Version: 6.00 Build 0)  -->
<svg version="1.1" id="Layer_1" xmlns="http://www.w3.org/2000/svg" xmlns:xlink="http://www.w3.org/1999/xlink" x="0px" y="0px"
	 viewBox="0 0 994.4 750.7" style="enable-background:new 0 0 994.4 750.7;" xml:space="preserve">
<style type="text/css">
	.st0{fill:#FFFFFF;}
	.st1{fill:#707372;}
	.st2{fill:#333733;}
	.st3{fill:#F00840;}
	.st4{fill:#9EA3A3;}
</style>
<g>
	<path class="st0" d="M992.5,320.4c-3.4-17.5-13.3-29-22.5-38c-17.9-17.4-42.7-28.9-64.6-37.8c-10.8-4.4-19.6-7.7-30.4-11.5
		c-5.4-1.9-10.7-3.5-15.8-5l-2.2-0.7c-3.5-1-6.9-1.7-10.2-2.4c-2.4-0.5-4.6-1-6.6-1.5c-0.1-0.3-0.3-0.6-0.4-0.9
		c-0.5-1.1-1-2.4-1.6-3.7c-1.2-2.5-2.4-4.9-3.6-7.1c-1.2-2.3-2.4-4.4-3.3-6.5c-4.9-10.9-11.1-20.9-17.1-30.1
		c-14.3-22.1-27.8-39.6-42.3-55.1c-38.2-40.6-81.2-71.2-128-90.8c-23.7-9.9-43.4-17-68.7-21.3c-12.9-2.2-38.8-5.6-52.4-6.9
		c-8.5-0.8-23.9-1-30.9-1c-0.7,0-1.4,0-2,0c-13.5,0.1-39.2,2.5-51.9,4.2c-13.5,1.8-25.7,5-39.1,8.8c-29.5,8.2-55.4,18.5-79.2,31.5
		c-40.8,22.2-76.5,50.9-106.3,85.3c-13.2,15.3-24.7,30.8-35,47.2c-7.4,11.7-14.1,24-20.1,36.6c-0.9,1.9-1.7,3.8-2.4,5.7
		c-0.5,1.3-1.2,3.2-1.8,4.3c-2.3,0.8-5.2,1.4-8.1,2.1c-2.5,0.6-5.2,1.2-7.8,1.9c-28.9,8.2-53.7,17.7-75.9,29
		C40.4,267.8,13.9,284,3.7,310.7c-2,5.3-5.4,14.1-2.7,161.8c0.1,3.8,0.1,7.1,0.1,7.7c0-0.7,0-1.3,0.1-2c-0.2,1.5-0.2,3.6-0.1,7.7
		c0.1,4.3,0.2,7.5,0.4,9.6c0.7,7.5,4.8,14.3,8.6,20.1c2.3,3.5,4.9,6.9,7.5,9.7c4.3,5.1,9.6,10,15.9,14.5c9.7,7,16.1,11,26.4,16.7
		c5,2.7,10.3,5.1,15,7.2l0.1,0.1c4.5,2,16.7,7.2,17.2,7.4l0.4,0.2l0.4,0.2l28.7,10.2l0.3,0.1l0.3,0.1c1.6,0.5,3.3,1,4.9,1.5
		c4.4,1.4,8.9,2.8,13.5,4.1c10.8,3.1,21.7,5.8,31.1,8c6.5,1.5,11.4,2.7,16,3.8l8.2,2.1c19.8,25.9,43.1,49.3,69.2,69.7
		c28.2,21.9,59.1,39.7,91.8,52.9c43.8,17.7,90.5,26.7,138.8,26.7c59.9,0,119.2-14.2,171.7-41c31.4-16.1,59.9-36.1,84.6-59.6
		c14.7-13.9,28.8-29.5,43.1-47.7c0.6-0.7,1.1-1.4,1.7-2.1c4.2-0.5,8.7-1,11.1-1.6c8.9-2.1,26.9-6.5,36-8.9c8.6-2.3,17-4.9,24.8-7.3
		l0,0l0,0c2.6-0.8,25.5-8.3,33.8-12.1c13.8-6.2,41-19.9,54-28.6c4.8-3.2,12.4-9.8,16.2-13.7c2-2.1,8.3-9.3,11-14
		c3.4-5.8,7.7-16.5,8.6-27.7c0.2-2.7,0.2-5.4-0.1-8.1c0.2-7.2,0.5-15.6,0.5-17.3l0-14.3l0-14.3c0-19,0-38.1,0-57.1
		c0-4.7,0.2-9.6,0.4-14.8C994.4,347.3,995,333.6,992.5,320.4z M977.5,432.3c0,9.5,0,19.1,0,28.6c0,1.8-0.5,15.2-0.6,18.1
		c0.3,2,0.4,4,0.2,6.1c-0.6,7.7-3.7,16.1-6.4,20.8c-1.8,3-7,9.2-8.8,11c-3.1,3.2-9.8,9.1-13.5,11.5c-12.2,8.1-38.3,21.3-51.7,27.3
		c-7.8,3.5-32.3,11.5-32.3,11.5c-8,2.5-15.9,5-24,7.1c-8.9,2.3-26.7,6.7-35.6,8.8c-3.2,0.8-15.4,1.9-15.4,1.9s0,0,0,0c0,0,0,0,0,0
		c-2,2.3-4,4.6-6.2,7.4c-12.9,16.3-26.5,31.6-41.6,46c-23.9,22.8-51.5,42-80.9,57c-50.9,26-107.7,39.3-164.4,39.3
		c-45.3,0-90.5-8.4-132.8-25.5c-63-25.5-118.8-68.8-158.7-123.3c0.3,0.5,0.6,0.9,0.9,1.4l-13.8-3.5c-5.3-1.2-10.7-2.5-16-3.7
		c-10.2-2.5-20.4-4.9-30.4-7.9c-6.2-1.8-12.1-3.7-18.1-5.6l-28.7-10.2c0,0-12.5-5.3-16.9-7.2c-4.5-2-9.5-4.3-14-6.7
		c-9.4-5.2-15.4-8.9-24.8-15.6c-4.2-3-9.1-7.1-13.2-12.1c-2-2.1-4.3-5-6.1-7.8c-2-3.1-5.7-8.8-6.1-13c-0.4-4-0.4-13.6-0.4-13.6l0,0
		c0,0,0,0,0,0c0.1,0-3.5-150.9,1.5-164c8.2-21.4,31.3-35.6,50.9-45.6c23.2-11.9,47.9-20.8,73-27.9c6.2-1.8,13.7-2.8,19.6-5.3
		c6.1-2.7,7.8-11.3,10.6-17.1c5.7-12,12.1-23.7,19.2-34.9c10.1-16,21.2-30.9,33.6-45.3c28.7-33.3,63.2-60.8,101.8-81.7
		c24.1-13.1,49.6-22.8,75.9-30.1c12.2-3.4,24.2-6.7,36.9-8.3c12.4-1.6,37.4-4,49.9-4.1c0.6,0,1.3,0,1.9,0c8.3,0,22.2,0.3,29.5,0.9
		c12.8,1.2,38.4,4.5,51.1,6.7c22.4,3.9,40.4,9.9,65.2,20.3c46.7,19.6,87.8,50,122.5,87c15.4,16.4,28.4,34,40.6,52.8
		c5.9,9,11.5,18.2,15.9,27.9c2.1,4.7,4.8,9.2,7,13.8c2.2,4.6,3.3,10.1,8.4,12.1c6.2,2.3,13.7,3.1,20.1,5c5.8,1.8,11.5,3.4,17.2,5.4
		c11.2,4,19.6,7.1,29.7,11.3c20.6,8.4,43.5,18.9,59.5,34.5c8.8,8.5,15.6,17.3,18,29.5c3.1,16.3,0.7,35.2,0.7,51.8
		C977.5,394.2,977.5,413.3,977.5,432.3z M898.3,418.9c-5.6-2.2-11.2-4.4-16.9-6.4c-6.2-2.2-15.2-7-21.8-7c0,0-0.1,0-0.1,0
		c-5,0-4.5,1.3-5,6.2c-0.6,6.1-1.3,12.2-2.2,18.3c-2,13.5-4.9,26.9-8.4,40.1c-1,4-2.2,7.9-3.3,11.8c0.5-0.1,2.5-0.7,6.9-2
		c8.2-2.4,16.5-4.7,24.6-7.4c16.1-5.5,32-11.7,47.4-19.1c6.5-3.2,22.1-12.8,22.1-12.8s1.6,0.9,3.9,2.3c-4.3-3-8.8-5.7-13.3-8.3
		C921.3,428.3,909.8,423.5,898.3,418.9z M866.9,457.3c-1.2,0.4-2.5,0.8-3.7,1.2c2-8.9,3.7-17.7,4.9-26.2c0.4-2.4,0.7-4.9,1-7.5
		c0.2,0.1,0.4,0.2,0.5,0.2c2.1,0.9,4.3,1.8,6.4,2.5c5,1.8,10.3,3.8,16.3,6.2c5.9,2.4,11.3,4.6,16.4,6.8
		C896,446.6,882.3,452,866.9,457.3z M135.8,405.1c-1.4,0-3.3,0.8-6,1.7c-7.5,2.4-14.9,4.8-22.3,7.4c-13,4.7-25.9,9.9-38.3,16.1
		c-6.5,3.2-12.8,6.9-18.9,10.9c0.1,0,0.2,0,0.2,0c0,0,0.1,0,0.1,0s47.4,23.1,68.8,30.3c5.1,1.7,10.2,3.4,15.4,5
		c4.8,1.5,17.2,4.9,18.1,5.2c-6.9-23.6-10.3-47.5-14-71.8C138.3,406.3,137.4,405.1,135.8,405.1z M124.6,456.5
		c-9.6-3.3-25.1-10.1-38.7-16.3c8.2-3.7,17.1-7.3,27.1-10.9c4-1.4,8.1-2.8,12.2-4.2c1.7,11,3.5,22.2,5.8,33.4
		C128.7,457.9,126.6,457.2,124.6,456.5z M291.2,254.7c0.1,1.5-0.5,2.2-2,2.4c-2.5,0.4-4.9,1-7.4,1.4c-1.4,0.2-1.8,0.9-1.7,2.1
		c0.1,0.8,0,1.7,0,2.5c0,20.2,0,40.4,0,60.6c0,0.8,0,1.7,0,2.5c0.1,1.2-0.6,1.7-1.6,1.9c-3.6,0.7-7.2,1.4-11.2,2.2
		c0-23,0-45.8,0-68.8c-3.7,0.8-7.1,1.4-11,2.2c0-4,0-7.7,0-11.5c0-1.3,1-1.4,2-1.6c9.4-1.9,18.7-3.8,28.1-5.7c4.9-1,4.9-0.9,4.9,4.1
		C291.2,250.9,291.2,252.8,291.2,254.7z M244,269.7c0,0.9-0.5,1.3-1.3,1.5c-3.7,0.9-7.4,1.7-11,2.5c-0.8-1.3-0.4-2.4-0.8-4
		c-2.8,0.1-5.4,1.2-8.1,1.7c-1.1,0.2-1.2,1.1-1.2,1.9c0,4.5,0,9.1,0,13.6c0,1.5,1,2,2.1,2.5c4.9,2.3,9.6,4.8,14.6,6.9
		c3.9,1.7,5.7,4.5,5.7,8.6c0,7.3,0.1,14.6,0,21.9c-0.1,5.4-3.1,9-8.3,10.3c-6,1.5-12.1,3-18.1,4.4c-0.7,0.2-1.4,0.3-2.1,0.4
		c-3.5,0.3-6.1-1.7-6.4-5.2c-0.2-2.9,0-5.7-0.1-8.6c0-0.9,0.2-1.6,1.2-1.8c3.7-0.9,7.3-1.9,10.8-2.8c1,1.4,0.2,2.7,1.1,4
		c2.6-0.2,5.2-1.2,7.8-1.7c1-0.2,1.3-0.9,1.3-1.8c0-4.7,0-9.3,0-14c0-1.4-0.9-1.8-1.9-2.2c-5.3-2.5-10.6-5.1-15.9-7.5
		c-3-1.4-4.3-3.6-4.4-6.8c0-0.7,0-1.4,0-2.2c0-7.6-1.1-15.4-0.1-22.9c0.7-5.1,4.6-7.8,9.7-8.8l15.2-3.7c1.3-0.2,2.6-0.6,3.9-0.7
		c3.1-0.1,5.3,1.5,5.9,4.6C244.4,263.2,244,266.5,244,269.7z M194.2,269.7c0,22.8,0,45.7,0,68.5c0,7.1-2.5,10.3-9.5,12.4
		c-5.6,1.6-11.2,3.3-16.8,4.9c-5.5,1.6-8.3-0.5-8.3-6.3c0-23.3,0-46.6,0-70c0-2.8,0-2.8,2.7-3.6c3.2-1,6.3-2.2,9.9-2.8
		c0,22.9,0,45.6,0,68.4c3.1-0.3,5.6-1.4,8.3-2.1c1.1-0.3,1.2-1,1.2-1.9c0-0.8,0-1.7,0-2.5c0-20.4,0-40.9,0-61.3c0-3.5,0-3.6,3.4-4.5
		c2.9-0.8,5.7-1.6,8.6-2.4C194.6,267.6,194.2,268.7,194.2,269.7z M63.5,389.5c0-24.9,0-49.7,0-74.6c0-3.4,0-3.4,3.3-4.8
		c2.9-1.1,5.6-2.6,8.8-3.4c0,11.3,0,22.4,0,33.7c2.9-0.1,5.1-1.7,7.5-2.5c1.4-0.5,1-1.7,1-2.8c0-9.1,0-18.2,0-27.3
		c0-0.8,0.1-1.7,0-2.5c-0.2-1.7,0.4-2.6,2.1-3.2c3.3-1.1,6.4-2.4,9.8-3.7c0.6,1.2,0.4,2.3,0.4,3.3c0,25,0,50,0,75
		c0,4,0.1,3.1-2.9,4.3c-3,1.1-5.8,2.6-9.3,3.2c0-11.3,0-22.4,0-33.7c-3,0.4-5.3,1.8-7.8,2.7c-1.2,0.5-0.8,1.6-0.8,2.5
		c0,7.5,0,15.1,0,22.6c0,2.6,0,5.3,0,7.9c0,0.8,0.2,1.7-0.9,2.1c-3.6,1.4-7.2,2.9-10.9,4.4C63.3,391.6,63.5,390.5,63.5,389.5z
		 M111,368.2c0.6,2.9,2.8,4.5,5.8,4.1c0.9-0.1,1.9-0.5,2.8-0.8c5.6-1.9,11.3-3.9,16.9-5.8c6.1-2.1,8.7-5.9,8.7-12.4
		c0-10.4,0-20.8,0-31.2c0-9.8,0-19.6,0-29.4c0-1.6,0.1-3.1-0.1-4.7c-0.5-3.4-3-5.2-6.4-4.6c-0.8,0.1-1.6,0.4-2.4,0.7
		c-5.4,1.8-10.8,3.7-16.3,5.6c-6.5,2.3-9.2,6.1-9.2,12.9c0,20.8,0,41.6,0,62.4C110.9,366,110.8,367.1,111,368.2z M123.2,304.7
		c0-3.4,0-3.4,3.1-4.5c1.9-0.7,3.8-1.3,5.9-2c0.6,1.3,0.4,2.3,0.4,3.2c0,16.5,0,33,0,49.5c0,3.3,0,3.3-3.3,4.4
		c-1.9,0.6-3.7,1.6-5.7,1.7c-0.7-1.2-0.4-2.3-0.4-3.3C123.2,337.4,123.2,321.1,123.2,304.7z M896.2,326.5c0.1-6.2,0-12.4,0-18.6
		c0-1,0-1.9,0.1-2.9c0.6-3.7,3.1-5.3,6.7-4.3c1.4,0.4,2.7,1,4,1.5c5,2,10,3.9,15,5.9c5.1,2.1,7.9,6,8,11.6c0.1,2.7,0,5.5,0,8.8
		c-4.1-1.6-7.4-3.1-10.9-4.4c-1.6-0.6-1.5-1.7-1.4-2.9c0.2-1.8-0.7-2.6-2.2-3.1c-2.1-0.7-4.2-1.6-6.2-2.4c-1.1,0.6-0.8,1.5-0.8,2.3
		c0,3.8,0.1,7.7-0.1,11.5c-0.1,2,0.6,3.4,1.9,4.8c5.1,5.7,10,11.6,15.1,17.3c3.1,3.5,4.6,7.4,4.6,12.1c-0.1,6.7,0,13.4,0,20.1
		c0,0.8,0,1.7-0.1,2.5c-0.4,3.2-2.8,4.8-5.9,4.1c-0.8-0.2-1.6-0.5-2.4-0.8c-5.7-2.2-11.3-4.5-17-6.8c-5.7-2.3-8.5-6.3-8.5-12.3
		c0-2.5,0-5,0-7.9c4,1.1,7.5,2.8,11.2,4.1c1.4,0.5,1.2,1.7,1.1,2.7c-0.2,1.8,0.6,2.6,2.2,3.1c2.3,0.7,4.3,2,7,2.4
		c0-5.3,0-10.4,0-15.5c0-1.4-1-2.1-1.8-3c-5-5.7-9.8-11.4-15-16.9C897.6,335.8,896.1,331.5,896.2,326.5z M851.5,286.7
		c-0.1-1.3,0-2.6,0-3.9c1.1-0.6,2,0,2.8,0.3c9.6,3.3,19.1,6.7,28.7,9.9c1.8,0.6,2.8,1.4,2.6,3.5c-0.2,3.2-0.1,6.4-0.1,10.1
		c-3.7-1.3-7-2.4-10.7-3.7c0,22.9,0,45.5,0,68.8c-4.2-1.5-7.7-2.7-11.2-3.9c-1.1-0.4-1.4-1.1-1.4-2.1c0.1-0.8,0-1.7,0-2.5
		c0-20.4,0-40.9,0-61.3c0-3.4,0-3.4-3.1-4.5c-2.5-0.9-5.8-1.1-7.2-2.8C850.5,292.8,851.7,289.4,851.5,286.7z M779.9,300.7
		c-0.6,1.3,0,2.6,0.4,3.8c3.7,12.6,7.4,25.2,11.1,37.8c0.3,1.1,0.6,2.2,1,3.8c-4.3-1.1-8.2-2.1-12-3.1c-1.5-0.4-1.5-1.7-1.8-2.8
		c-2.5-8.3-5-16.7-7.5-25c-0.5-1.6-1-3.2-1.5-4.8c-0.3-0.4-0.3-0.8-0.3-1.3c0,0.4,0,0.9-0.3,1.3c0,9.7,0,19.3,0,29.3
		c-2.8,0.2-5.1-0.9-7.4-1.4c-5.4-1.2-5.4-1.2-5.4-6.8c0-22.8,0-45.7,0-68.5c0-1.2-0.1-2.4-0.1-3.6c0.4-1.1-0.2-2.4,0.5-3.7
		c3.9,0.3,7.5,1.7,11.3,2.5c1.3,0.3,1,1.4,1.1,2.3c0,5.1,0.1,10.2,0.1,15.4c1,3.9,1.4,7.8,0.3,11.7c0.9-2.5,1-5.4,3.2-7.4
		c2-5.5,3.9-11,5.9-16.5c0.9-2.6,1-2.6,3.5-2c3.5,0.9,6.9,1.9,10.6,2.9c-3.3,9.8-6.6,19.5-9.9,29.1
		C781.3,295.9,780.9,298.4,779.9,300.7z M742,260.7c-0.2,2.7,0,5.5,0,8.7c-3.9-0.8-7.3-1.6-10.7-2.2c-1.5-0.3-1.9-1-1.9-2.4
		c-0.1-2.8-0.2-2.8-2.9-3.4c-2.1-0.4-4.2-0.8-6.3-1.3c-0.8,0.9-0.5,1.9-0.5,2.8c0,16.7,0,33.5,0,50.2c0,3,0,3,3,3.6
		c2.1,0.4,4.2,0.9,6.2,1.3c1.1-1.1,0.2-2.5,1-3.8c3.6,0.4,7.2,1.5,10.9,2.2c1.3,0.3,1.3,1.2,1.3,2.2c0,2.5,0.1,5,0,7.5
		c-0.2,4.3-2.9,6.5-7.2,5.8c-4.4-0.7-8.7-1.7-13-2.6c-2-0.4-4-0.8-6-1.2c-5.9-1.2-8.9-4.7-8.9-10.8c-0.1-11,0-22,0-33
		c0-9.8,0-19.6,0-29.4c0-1.3,0-2.6,0.3-3.9c0.6-3,2.7-4.7,5.8-4.8c1.7-0.1,3.3,0.4,4.9,0.7c5.1,1.1,10.3,2.1,15.5,3.1
		C738.9,251.2,742.3,255.8,742,260.7z M840.8,359.7c-1,0.5-1.8,0.1-2.6-0.2c-9.6-2.9-19.2-5.8-28.8-8.7c-1.8-0.5-2.7-1.1-2.7-3.3
		c0.1-25.6,0.1-51.2,0.1-76.7c0-0.7-0.1-1.4,0.6-2.3c7.5,2.2,15.2,4.5,22.8,6.8c2.9,0.9,5.7,1.8,8.5,2.6c1.4,0.4,2.2,1,2.1,2.7
		c-0.1,3.4,0,6.9,0,10.6c-7.3-2.2-14.2-4.3-21.5-6.5c0,7.1,0,13.8,0,20.4c0,1.6,1.2,1.6,2.1,1.9c3.9,1.2,7.7,2.5,11.6,3.5
		c1.8,0.5,2.3,1.3,2.2,3c-0.1,3.3,0,6.7,0,10.2c-5.5-1.2-10.4-3.4-15.9-4.4c0,6.8,0,13.3,0,19.9c0,1.7,1.1,1.9,2.2,2.3
		c5.5,1.7,10.9,3.4,16.4,5.1c3,0.9,3,0.9,3,4.1C840.8,353.9,840.8,356.8,840.8,359.7z M339,245.1c0-0.5,0-1,0-1.4
		c-0.3-4.3-3.5-7-7.8-6.4c-6.3,0.9-12.5,2.1-18.7,2.9c-5,0.7-9,4.8-8.8,10.7c0.3,10.5,0.1,21,0.1,31.5c0,10.9,0,21.7,0,32.6
		c0,4.8,2.9,7.7,7.4,7c6.9-1,13.7-2.1,20.5-3.2c2.4-0.4,4.2-1.7,5.6-3.6c1.4-1.9,1.9-4,1.9-6.4C339,287.7,339,266.4,339,245.1z
		 M326.1,303.7c0,3,0.6,3.5-3.5,3.8c-2,0.1-4.4,1.6-5.8,0.3c-1.3-1.1-0.4-3.6-0.4-5.5c0-15.3,0-30.6,0-45.9c0-0.8,0-1.7,0-2.5
		c0-1.1,0.4-1.7,1.6-1.9c2.6-0.3,5.2-0.8,7.7-1.2c0.6,1.2,0.4,2.3,0.4,3.3C326.1,270.7,326.1,287.2,326.1,303.7z M387.7,232.6
		c-0.1,0.6,0,1.2,0,1.8V309c0,3.1-0.1,2.9-3.1,3.3c-3.4,0.5-6.2,1-9.8,0.8c0-3.1-0.1-6.3,0-9.5c0.1-2.9-0.4-5.7-1.4-8.4
		c-2.2-5.8-4.2-11.7-6.2-17.5c-0.2-0.7-0.2-1.4-1.4-2.1c0,1.1,0,1.9,0,2.8c0,11,0,22,0,33c0,2.9,0,2.9-3.1,3.4
		c-2.6,0.4-5.2,0.7-7.8,1.1c-1.3,0.2-2.1-0.1-2-1.6c0-0.7,0-1.4,0-2.2c0-24.6,0-49.3,0-73.9c0-0.7,0-1.4,0-2.2
		c0-1.1,0.4-1.7,1.6-1.9c3.2-0.4,6.4-0.8,9.6-1.2c1.5-0.2,1.8,0.8,2.1,1.8c1.7,4.8,3.4,9.7,5.1,14.5c0.9,2.6,1.8,5.2,2.8,7.7
		c0.2,0,0.4,0,0.7-0.1c0-7.3,0-14.5,0-21.8c0-3.5,0-3.5,3.4-3.8c2.4-0.2,4.8-0.4,7.1-0.7C387,230.4,388,230.7,387.7,232.6z
		 M692.5,250.7c0-5.5-3.1-9.1-8.4-10c-6-1-12-2-18.1-2.9c-5.9-0.9-8.9,1.8-8.9,7.7c0,21.3,0,42.6,0,63.9c0,5.8,3.2,9.3,9,10.1
		c2.6,0.4,5.2,0.8,7.8,1.2c3.8,0.6,7.5,1.3,11.3,1.7c4.5,0.4,7-2,7.2-6.5c0.1-0.8,0-1.7,0-2.5c0-10.2,0-20.3,0-30.5
		C692.5,272.2,692.6,261.5,692.5,250.7z M679.8,256.4c0,16.3,0,32.5,0,48.8c0,0.7,0,1.4,0,2.2c0,1.1-0.5,1.5-1.5,1.4
		c-0.2,0-0.5,0-0.7-0.1c-2.4-0.7-5.6,0.1-7.1-1.7c-1.4-1.7-0.4-4.6-0.4-7c0-14.8,0-29.7,0-44.5c0-1.3-0.3-2.6,0.3-4
		c2.7,0,5.4,0.7,8,1.1c1,0.2,1.5,0.7,1.4,1.7C679.7,255,679.8,255.7,679.8,256.4z M637.3,282.7c-0.2-1.5-0.3-2.4,1.2-3.2
		c2-1.2,2.9-3.1,2.9-5.4c0-10.8,0.1-21.5-0.1-32.3c-0.1-4.2-3.1-7.7-7.2-8.2c-8.7-1.1-17.3-1.9-26-3c-1.9-0.2-2.3,0.5-2.2,2.2
		c0.1,0.5,0,1,0,1.4c0,24.8,0,49.5,0,74.3c0,0.7,0,1.4,0,2.2c0,1,0.5,1.6,1.5,1.6c3.7,0.1,7.3,1.1,11.5,0.8c0-11.5,0-22.7,0-34
		c0.9,0.1,1.5,0.1,2.1,0.2c3,0.3,3,0.3,3.5,3.3c0.8,5,1.5,9.9,2.3,14.9c0.8,4.8,1.5,9.7,2.4,14.5c0.2,0.9-0.2,2.4,1.3,2.7
		c4,0.6,7.9,1.3,12,1.4c0-0.7,0-1.1,0-1.4C640.8,303.9,639.1,293.3,637.3,282.7z M628.7,265.4c0,1.4-0.5,2-1.9,1.7
		c-1.1-0.2-2.1-0.3-3.2-0.4c-4.7-0.6-4.7-0.6-4.7-5.5c0-5.5,0-10.9,0-16.7c2.8,0.3,5.2,0.6,7.7,0.8c1.4,0.1,2.1,0.6,2.1,2.2
		C628.6,253.5,628.6,259.4,628.7,265.4z"/>
	<path class="st1" d="M977.1,485.1c-0.6,7.7-3.7,16.1-6.4,20.8c-1.8,3-7,9.2-8.8,11c-3.1,3.2-9.8,9.1-13.5,11.5
		c-12.2,8.1-38.3,21.3-51.7,27.3c-7.8,3.5-32.3,11.5-32.3,11.5c-8,2.5-15.9,5-24,7.1c-8.9,2.3-26.7,6.7-35.6,8.8
		c-3.2,0.8-15.4,1.9-15.4,1.9s8-13.1,9.7-15.7c4.5-7.1,8.9-14.4,13-21.8c8.5-15.5,15.8-31.7,21.9-48.3c1.5-4.1,6.5-17.4,6.5-17.4
		s1.9-0.5,7-2c8.2-2.4,16.5-4.7,24.6-7.4c16.1-5.5,32-11.7,47.4-19.1c6.5-3.2,22.1-12.8,22.1-12.8s10,5.5,15.3,10
		C967.4,459.6,978.3,470.2,977.1,485.1z M162.3,508.7c-2.9-7.4-9.3-26.9-9.3-26.9s-13.2-3.7-18.2-5.2c-5.2-1.6-10.3-3.3-15.4-5
		c-21.4-7.3-68.8-30.3-68.8-30.3S49,441,43,445.4c-4.1,3-8.1,6.3-11.6,9.9c-3.8,3.8-7.2,7.9-9.7,12.7c-3.3,6.2-4.6,12.4-4.6,12.4
		s0,9.6,0.4,13.6c0.4,4.2,4.1,9.9,6.1,13c1.8,2.8,4.1,5.7,6.1,7.8c4.1,5,9.1,9.1,13.2,12.1c9.4,6.8,15.4,10.5,24.8,15.6
		c4.5,2.5,9.5,4.7,14,6.7c4.4,2,16.9,7.2,16.9,7.2l28.7,10.2c6.1,1.9,12,3.8,18.1,5.6c10,2.9,20.2,5.4,30.4,7.9
		c5.3,1.3,10.7,2.6,16,3.7l13.8,3.5c-3.7-5.5-8.7-14.1-11.2-18.1C182.1,549.9,170.8,530,162.3,508.7z"/>
	<path class="st2" d="M618.9,261.2c0-5.5,0-10.9,0-16.7c2.8,0.3,5.2,0.6,7.7,0.8c1.4,0.1,2.1,0.6,2.1,2.2c-0.1,6,0,11.9,0,17.9
		c0,1.4-0.5,2-1.9,1.7c-1.1-0.2-2.1-0.3-3.2-0.4C618.9,266.1,618.9,266.1,618.9,261.2z M626.8,109.1c2.3,10.3,5.1,20.5,6.8,31
		c0.4,2.1,1.5,3.3,3.4,4.1c4.3,1.8,8.6,3.6,12.7,5.7c11.6,5.7,22.8,11.9,33.8,18.7c2,1.2,2.1,1.2,3-1c2.5-6.7,5.1-13.4,8.4-19.7
		c0.7-1.3,1.1-2.7,1-3.3c-0.2-4.2-1.3-7.1-4-9.3c-1.4-1.1-2.8-2.3-4.2-3.3c-9.6-7.3-19.4-14.2-29.7-20.5
		c-7.8-4.8-15.8-9.3-24.1-13.3c-1.4-0.7-2.8-1.2-4.4-0.5c-3.3,1.4-4.7,3.8-3.9,7.4C625.9,106.4,626.5,107.7,626.8,109.1z
		 M706.8,184.4c3,1.9,5.7,4.2,8.6,6.4c10.6,8,20.6,16.7,30,26c6.4,6.3,13.1,12.3,18.7,19.3c2.7,3.4,6.4,3.5,10.8,3.9
		c-1.5-4-3.5-6.9-5-10c-4.1-8.1-8.9-15.8-13.8-23.4c-9.6-15.1-21-28.9-32.9-42.2c-1.3-1.4-2.6-2.8-4.1-4c-2.2-1.8-5-1.3-6.3,1.2
		c-3.1,5.9-5.3,12.2-7.4,18.6C704.7,181.8,705.1,183.3,706.8,184.4z M670.4,307c1.5,1.8,4.7,0.9,7.1,1.7c0.2,0.1,0.5,0.1,0.7,0.1
		c1.1,0.1,1.6-0.3,1.5-1.4c0-0.7,0-1.4,0-2.2c0-16.3,0-32.5,0-48.8c0-0.7,0-1.4,0-2.2c0-1-0.4-1.5-1.4-1.7c-2.7-0.4-5.3-1.1-8-1.1
		c-0.6,1.4-0.3,2.7-0.3,4c0,14.8,0,29.7,0,44.5C670,302.4,669,305.3,670.4,307z M541.1,86.3c5,9.4,9.3,19.1,12.4,29.3
		c0.6,2,1.5,3.3,3.8,3.7c16,2.8,31.6,7,47,12.2c1.6,0.5,3.6,2.2,4.9,0.8c1-1.1-0.2-3.4-0.6-5c-2.5-9.9-5.1-19.8-7.7-29.7
		c-0.5-1.7-1.3-3.4-1.7-5.1c-1.9-7.8-7.2-11.9-14.7-14c-13.9-3.7-27.9-7-42.2-9.2c-3.7-0.6-6.6,1.9-6.6,5.8c-0.1,1.2,0.3,2.3,1,3.5
		C538.3,81,539.7,83.7,541.1,86.3z M523.7,355.6c0.1-11.3,0.2-22.7,0.5-34c0.3-7.2-3-12.4-8.6-16.3c-5.9-4.1-12.5-6.5-19.3-8.3
		c-8.8-2.3-17.9-4-26.9-4.6c0-0.4,0-1.2,0-1.6c0-0.3,0-0.5,0-0.7c-0.1,0.6-0.1,1.3-0.1,2.3c-0.2,2.4-0.4,4.8-0.5,7.1
		c-0.4,10.6-0.2,21.3-0.7,31.9c-0.6,12.8-0.7,25.6-0.8,38.3c-0.1,13.1,0,26.3-0.1,39.4c0,6.6-0.1,6.6,6.7,6.6c15.2,0,30.3,0,45.5,0
		c1.2,0,2.4-0.2,3.6-0.2c1.3,0.1,2.1,0,2.6-0.2c-0.5,0.2-1.2,0.2-2.3,0.2C523.3,395.7,523.5,375.5,523.7,355.6z M655.2,380.7
		c-2.9-2.4-6.3-3.9-9.7-5.2c-9.7-3.7-19.9-5.8-30.1-7.8c-13.1-2.5-26.3-4.4-39.5-6.2c-2.7-0.4-5.7-0.8-8.5-0.6
		c-0.1,1.3-0.3,2.6-0.3,3.9c-0.1,14.1-0.2,28.2-0.2,42.3c0,1.9-0.6,4.6,0.4,5.5c1,0.9,3.6,0.1,5.5,0c0.1,0,0.2,0,0.4,0
		c12.7-1.1,25.4-2.9,37.9-5.2c11.5-2.2,22.9-4.7,33.8-9.3c4.5-1.9,9-3.9,12.5-7.5c0.1-0.1,0.2-0.2,0.3-0.3c0.1-0.5,0-1,0.2-1.4
		C659.2,385.4,657.8,382.8,655.2,380.7z M805.7,387.2c-0.1,0.9-0.1,1.9-0.1,2.9c0,8.4-1.2,16.6-2.1,24.9c-1.4,13-4,25.9-7.3,38.5
		c-3.6,14-8.1,27.7-13.8,41c-3,7.1-6.1,14.3-9.6,21.2c-1.7,3.3-3.5,6.5-5.2,9.8c-0.3,0.6-0.8,1.2-1.2,1.7c-0.7,0.8-1.5,1.6-2.8,1
		c-1.2-0.6-1.8-1.5-1.8-2.9c0-0.4,0-0.7,0.1-1.1c1.5-4.8,2.1-9.8,2.9-14.7c1.2-6.8,2-13.6,2.8-20.5c1.9-15.7,1.3-31.5,1.2-47.2
		c0-4.7-0.6-9.5-1.2-14.2c-0.5-4.2-1-8.5-1.5-12.7c-0.9-7-2.2-13.8-3.7-20.7c-2.4-11.6-5.8-22.9-9.4-34.1c-0.8-2.5-1.9-4.9-2.7-7.4
		c-0.8-2.4-2.4-3.9-4.8-4.3c-4.4-0.8-8.9-1.5-13.4-2.2c-4.9-0.7-6.5,3.4-5.1,7.1c5.1,12.7,9.3,25.8,12.5,39.1
		c2.3,9.6,4.2,19.3,5.4,29.1c0.8,6.6,1.2,13.3,1.8,19.9c0.7,8.7,0.5,17.4,0.4,26.1c0,5.3-0.6,10.7-1.1,16c-0.5,4.5-1,9-1.5,13.5
		c-1.4,10.6-3.6,21.1-6.1,31.5c-3.2,12.9-7.9,25.3-14.3,37c-5.6,10.4-12.3,20.1-20.1,29.1c-4.6,5.2-9.4,10.2-14.5,14.9
		c-7.4,6.8-15.5,12.7-24,18c-12.6,7.8-26.3,13.5-40.2,18.7c-15.8,5.8-32,10.1-48.5,13.4c-6.9,1.4-13.8,2.5-20.8,3.2
		c-10.2,1.1-20.4,2-30.6,2.3c-4.1,0.1-8.4,1-12.5,0.4c-6.8-0.9-13.6-0.3-20.3-1.1c-5.7-0.6-11.4-1-17-1.7
		c-5.1-0.6-10.1-1.4-15.1-2.4c-3.4-0.7-5.8-3.1-6.6-6.4c-0.9-3.7,0-7.2,3.1-9.7c8.2-6.8,16-14,23.6-21.4c2.9-2.8,6-5.4,8.8-8.4
		c6.5-6.8,13-13.7,19.3-20.7c3.9-4.4,5.3-9.8,4.3-15.7c-0.7-4-0.2-8.1-0.4-12.2c-0.1-1.1,0-2.2-0.3-3.2c-0.7-2.5-3.1-3.2-4.9-1.3
		c-2.3,2.4-4.5,4.9-6.6,7.5c-4.4,5.3-9,10.5-13.6,15.6c-6.8,7.6-13.9,14.8-21.3,21.8c-6.9,6.6-13.9,13-21.2,19.3
		c-5.7,4.9-11.4,9.8-17.4,14.3c-7.8,6-16.5,7.3-25.7,3.9c-9.6-3.6-19-7.8-28.1-12.6c-17.8-9.3-34.8-19.9-50.6-32.3
		c-8.5-6.7-16.9-13.7-24.5-21.4c-2.9-3-6.3-5.4-8.8-8.8c-5.1-6.8-7.2-14.1-5.4-22.5c2.6-12.1,6-24.1,10.1-35.8
		c3.6-10.1,7.6-20.1,12.1-29.8c6.2-13.7,13.8-26.7,21.8-39.4c2.5-4,1.4-7-3.1-8.6c-2.9-1-5.8-2.1-8.8-3.1c-4.5-1.6-5.9-1-8.5,3.1
		c-6.8,10.5-13,21.5-18.4,32.8c-8.2,17-15.2,34.5-20.4,52.7c-1,3.7-2.9,6.5-6.8,7.7c-3.7,1.2-7.4,0-9.7-3.2c-4-5.6-7.5-11.6-11-17.6
		c-4.3-7.4-8-15-11.6-22.6c-4-8.3-7.4-16.8-10.6-25.4c-5.1-13.5-8.8-27.4-12.1-41.5c-1.8-7.8-2.9-15.6-4.2-23.5
		c-1.3-8-2.1-16.1-2.5-24.1c-0.4-8.2-1.4-16.4-0.9-24.7c0.8-12.5,1.8-24.9,5-37.1c0.6-2.2,1.1-4.4,1.9-6.5l5.9,0.6
		c0.3,0.2,0.6,0.3,0.9,0.5c5.3,2.4,10.6,5,15.9,7.5c1,0.5,1.9,0.8,1.9,2.2c0,4.7,0,9.3,0,14c0,0.9-0.2,1.6-1.3,1.8
		c-2.7,0.5-5.2,1.5-7.8,1.7c-0.9-1.3-0.1-2.6-1.1-4c-3.5,0.9-7.2,1.9-10.8,2.8c-1,0.3-1.3,0.9-1.2,1.8c0,2.9-0.1,5.7,0.1,8.6
		c0.2,3.5,2.9,5.6,6.4,5.2c0.7-0.1,1.4-0.2,2.1-0.4c6-1.5,12.1-2.9,18.1-4.4c5.2-1.3,8.2-5,8.3-10.3c0.1-7.3,0-14.6,0-21.9
		c0-4.1-1.8-6.9-5.7-8.6c-4.9-2.1-9.7-4.6-14.6-6.9c-1.1-0.5-2.1-1-2.1-2.5c0.1-4.5,0-9.1,0-13.6c0-0.9,0.1-1.7,1.2-1.9
		c2.7-0.5,5.4-1.7,8.1-1.7c0.3,1.5-0.1,2.6,0.8,4c3.6-0.8,7.3-1.7,11-2.5c0.7-0.2,1.3-0.6,1.3-1.5c-0.1-3.2,0.4-6.5-0.3-9.7
		c-0.6-3.1-2.8-4.8-5.9-4.6c-1.3,0.1-2.6,0.5-3.9,0.7l-15.2,3.7l7.1-1.7c-0.1-0.1-0.2-0.1-0.3-0.2c1.5-4.1,4.5-7.3,7-10.7
		c6.3-8.7,13.6-16.7,21.6-23.8c8.5-7.6,17.5-14.7,26.7-21.5c11.9-8.7,24.2-16.5,37.1-23.6c16.3-9,33.3-16.7,50.8-23.1
		c13.1-4.8,26.6-8.5,40.1-11.8c2.8-0.7,5.6-1.2,8.4-1.7c1.3-0.2,2.3-0.9,2.6-2.1c1.6-7.1,3.8-14,5.6-21.3c-3.6-0.1-6.8,0.8-9.9,1.4
		c-17.7,3.4-35,8.2-52,14.2c-9,3.2-17.8,6.8-26.6,10.6c-9.1,3.9-17.9,8.6-26.7,13.1c-7.4,3.8-14.6,8.2-21.6,12.6
		c-9,5.7-17.7,11.7-26.1,18.2c-2.7,2.1-5.2,2.1-7.1,0.1c-1.8-1.9-1.6-4.5,0.5-7.1c8.4-10.5,17.7-20,27.2-29.4
		c7.7-7.6,16.1-14.5,24.6-21.3c10.4-8.2,21.4-15.5,32.8-22.3c14-8.3,28.6-15.2,43.8-21.2c13.9-5.4,28.1-9.9,42.7-13.2
		c8.8-2,17.7-3.7,26.7-4.9c7.3-0.9,14.7-1.5,22-2.3c7.4-0.7,14.8-0.3,22.2-0.6c1.6-0.1,2.8,0.4,3.8,1.6c2.6,3.2,5.5,6.3,7.9,9.7
		c6.4,8.7,11.9,17.9,16.4,27.7c1.2,2.6,2.2,5.3,3.3,7.9c0.6,1.4,0.1,2.3-1.3,1.9c-3.3-1-6.7-0.1-9.9-1.1c-0.5-0.1-0.9-0.2-1.4-0.2
		c-15.5-1.1-31-0.8-46.6-0.7c-2.7,0-2.8,0.4-2.3,3c1.3,5.7,3.1,11.3,4.1,17c0.2,1.2,0.7,2.4,2.4,2c3.3-0.9,6.7-0.3,10-0.4
		c2-0.1,4.1,0.1,6.1,0c7.1-0.3,14.1,0.7,21.1,0.9c7.1,0.2,14.2,1.3,21.3,2.1c3.6,0.4,4.5,1.1,4.9,4.7c0.5,4.5,1.4,8.9,1.6,13.5
		c0.1,3.9,1.4,5.2,5.2,6.2c5.6,1.5,11,3.8,16.4,6c1-0.7,0.7-1.6,0.7-2.3c0.1-6.7-0.1-13.3-1.4-19.9c-0.5-2.6,0.1-3.1,2.7-2.5
		c15,3.1,29.6,7.3,43.9,12.7c1.9,0.7,3.8,1.3,5.8,1.9c1.2,0.4,1.9,1.1,2.2,2.5c0.9,4.2,1.4,8.4,2,12.7c0.8,5.4,1.4,10.8,2,16.3
		c0.3,3,0.5,5.9,0.7,8.9c0.2,4.3,1,8.5,0.9,12.8c-0.1,4.6,1.3,6.4,5.8,7.3c3.9,0.8,7.9,1.8,12,1.8c3.6,0.1,4.7-0.8,4.4-4.4
		c-0.5-5.8-0.3-11.7-1.2-17.4c-0.4-2.6-0.4-5.2-0.6-7.8c-0.6-6.9-1.5-13.7-2.3-20.9c2.9,0.2,5,1.7,7.2,2.9
		c6.5,3.6,13.2,6.8,19.4,10.7c4.3,2.7,8.5,5.3,12.8,7.9c1.5,1,2.2,1.9,1.8,4.1c-1.6,8.7-2.1,17.5-1.8,26.3c0.1,2.7,1.4,4.7,3.9,5.4
		c4.8,1.4,9.7,2.2,14.7,2.4c2.4,0.1,2.8-0.5,2.9-3c0.1-2.4,0-4.8,0-7.2c-0.1-3.8,0-7.6,1.1-11.5c2.6,0.3,4,2.6,5.9,4.1
		c13,10.1,24.9,21.5,36.4,33.4c3.5,3.7,6.8,7.7,10.2,11.5c0.9,1.1,1.8,2.2,3.1,2.9c0,1.2,0.1,2.4,0.1,3.6c0,22.8,0,45.7,0,68.5
		c0,5.6,0,5.6,5.4,6.8c2.4,0.5,4.6,1.6,7.4,1.4c0-9.9,0-19.6,0-29.3c0.3-0.4,0.3-0.8,0.3-1.3c0,0.4,0,0.9,0.3,1.3
		c0.5,1.6,1,3.2,1.5,4.8c2.5,8.3,4.9,16.7,7.5,25c0.3,1.1,0.3,2.4,1.8,2.8c3.9,1,7.8,2,12,3.1c-0.4-1.6-0.7-2.7-1-3.8
		c-3.7-12.6-7.4-25.2-11.1-37.8c-0.4-1.3-1-2.5-0.4-3.8c1-2.3,1.4-4.8,2.6-7c-0.1,1.6,0.5,2.9,1.4,4.3c6.4,9.9,11.9,20.4,17.7,30.7
		c1.7,3.1,1.7,6.4,2.3,9.6c0.6,3.3,0.4,6.7,1,9.9c1,5.7,0.7,11.4,1.1,17.1C806.6,372.6,806.9,379.9,805.7,387.2z M657.1,245.5
		c0,21.3,0,42.6,0,63.9c0,5.8,3.2,9.3,9,10.1c2.6,0.4,5.2,0.8,7.8,1.2c3.8,0.6,7.5,1.3,11.3,1.7c4.5,0.4,7-2,7.2-6.5
		c0.1-0.8,0-1.7,0-2.5c0-10.2,0-20.3,0-30.5c0-10.8,0.1-21.5,0-32.3c0-5.5-3.1-9.1-8.4-10c-6-1-12-2-18.1-2.9
		C660.2,237,657.1,239.6,657.1,245.5z M606,232.8c0.1,0.5,0,1,0,1.4c0,24.8,0,49.5,0,74.3c0,0.7,0,1.4,0,2.2c0,1,0.5,1.6,1.5,1.6
		c3.7,0.1,7.3,1.1,11.5,0.8c0-11.5,0-22.7,0-34c0.9,0.1,1.5,0.1,2.1,0.2c3,0.3,3,0.3,3.5,3.3c0.8,5,1.5,9.9,2.3,14.9
		c0.8,4.8,1.5,9.7,2.4,14.5c0.2,0.9-0.2,2.4,1.3,2.7c4,0.6,7.9,1.3,12,1.4c0-0.7,0-1.1,0-1.4c-1.7-10.6-3.4-21.2-5.1-31.8
		c-0.2-1.5-0.3-2.4,1.2-3.2c2-1.2,2.9-3.1,2.9-5.4c0-10.8,0.1-21.5-0.1-32.3c-0.1-4.2-3.1-7.7-7.2-8.2c-8.7-1.1-17.3-1.9-26-3
		C606.3,230.4,605.8,231.1,606,232.8z M352.9,312c0,0.7,0,1.4,0,2.1c-0.1,1.5,0.7,1.8,2,1.6c2.6-0.4,5.2-0.7,7.8-1.1
		c3-0.4,3.1-0.4,3.1-3.4c0-11,0-22,0-33c0-0.9,0-1.7,0-2.8c1.2,0.7,1.2,1.4,1.4,2.1c2.1,5.9,4.1,11.7,6.2,17.5
		c1,2.7,1.5,5.5,1.4,8.4c-0.1,3.2,0,6.4,0,9.5c3.6,0.2,6.4-0.3,9.8-0.8c3.1-0.4,3.1-0.2,3.1-3.3v-74.6c0-0.6-0.1-1.2,0-1.8
		c0.2-1.9-0.7-2.2-2.3-2c-2.4,0.3-4.8,0.5-7.1,0.7c-3.4,0.3-3.4,0.3-3.4,3.8c0,7.3,0,14.5,0,21.8c-0.2,0-0.4,0-0.7,0.1
		c-0.9-2.6-1.9-5.2-2.8-7.7c-1.7-4.8-3.4-9.7-5.1-14.5c-0.4-1-0.6-2.1-2.1-1.8c-3.2,0.5-6.4,0.9-9.6,1.2c-1.2,0.1-1.7,0.7-1.6,1.9
		c0,0.7,0,1.4,0,2.2C352.9,262.8,352.9,287.4,352.9,312z M303.6,250.9c0.3,10.5,0.1,21,0.1,31.5c0,10.9,0,21.7,0,32.6
		c0,4.8,2.9,7.7,7.4,7c6.9-1,13.7-2.1,20.5-3.2c2.4-0.4,4.2-1.7,5.6-3.6c1.4-1.9,1.9-4,1.9-6.4c0-21.3,0-42.5,0-63.8
		c0-0.5,0-1,0-1.4c-0.3-4.3-3.5-7-7.8-6.4c-6.3,0.9-12.5,2.1-18.7,2.9C307.4,240.9,303.4,245,303.6,250.9z M291.2,254.7
		c-0.1-1.9,0-3.8,0-5.7c0-4.9,0-5-4.9-4.1c-9.4,1.8-18.7,3.8-28.1,5.7c-1,0.2-2,0.2-2,1.6c0,3.8,0,7.5,0,11.5
		c3.9-0.8,7.2-1.5,11-2.2c0,23,0,45.8,0,68.8c4-0.8,7.6-1.5,11.2-2.2c1.1-0.2,1.7-0.7,1.6-1.9c0-0.8,0-1.7,0-2.5
		c0-20.2,0-40.4,0-60.6c0-0.8,0-1.7,0-2.5c-0.1-1.3,0.4-1.9,1.7-2.1c2.5-0.4,4.9-1,7.4-1.4C290.7,256.9,291.3,256.2,291.2,254.7z
		 M698.9,381c-2.4-2.7-5.3-4.8-8.4-6.6c-5.9-3.4-12.3-5.9-18.8-7.9c-11.2-3.5-22.7-5.7-34.2-7.4c-13.4-2-26.8-2.9-40.3-3.3
		c-9.2-0.3-18.4-0.5-27.6,0.4c-1.5,0.2-2.2-0.4-2.2-2c0.1-1.8,0-3.6,0.1-5.4c0.1-14.3,0.2-28.7,0.2-43c0-7.5-3.2-13.6-9.4-18
		c-3.8-2.7-8-4.2-12.4-5.4c-5.8-1.5-17.4-1.8-17.4-1.8s-4.4,0.2-6.8,0.1c-2-0.1-2.4-0.1-4.1-0.3c0.1,0,0.3-0.1,0.5-0.1
		c3.4,0.3,4.6,0.4,8.4,0.2l5.1-2c5.6-2.2,11.1-4.6,16.2-8c1.3-0.7,5.2-3.7,7.8-5.9c0.2-0.1,0.3-0.2,0.5-0.3l2.9-2.4
		c4.4-3.6,8.3-7.6,11.5-12.2c7.3-10.4,10-22,9.2-34.6c-0.5-8.4-3.5-15.8-9.1-22.1c-7.8-8.8-18-13.7-29-16.9c-15-4.5-30.4-5.8-46-5.8
		c-9.7,0-19.3,0.7-29,1.5c-2.2,0.2-2.9,0.5-3.3-2.8c-2.6-19.3-6.4-38.4-12.1-57c-0.9-3.1-3-9.1-3.3-9.7c0-0.1,0-0.1,0.1-0.2
		c-2.4,1.1-3.4,3.1-4.2,5.4c-4.6,15-9.1,30.1-12.4,45.4c-1.7,7.9-3.5,16-4.4,24.1c0.2,0,0.4,0,0.6,0c-0.3,0-0.6,0.1-1,0.1
		c-16.2,2.9-32.3,6.2-48.2,10.4c-6.4,1.7-12.8,3-19,5.4c-0.1,0-0.1,0-0.2,0c-2.3,0.1-3.5,1.5-4.6,3.5c1.6,0,2.8,0.1,3.9,0
		c10.7-0.8,21.4-1.5,32.2-1.6c0.4,0,0.7,0,1.1-0.1c10.3-0.8,20.5-0.3,30.8-0.5c1.6,0,1.9,0.5,1.8,2.1c-0.6,8.6-1.3,17.1-1.5,25.7
		c-0.3,14.4-0.3,28.9,0.3,43.4c0.5,12.2,0.5,24.4,0.8,36.5c0.4,17.1,0.5,34.2,0.7,51.2l-0.1,2.1c-2.8,0.1-6.3,0.2-7.8,0.1
		c-11.6-0.1-23.1,0.4-34.7,1.1c-12.8,0.7-25.4,2.2-38,4.5c-10.8,1.9-21.5,4.5-31.6,8.8c-6.5,2.7-13.7,8-17.2,11.9l-0.7,0.9
		c-0.5,0.8-0.8,0.9-1.1,1.6c-0.1-0.1-0.4,0.1-0.7,0.3c-2.8,2.2-3,10.4-0.2,14.2c2.5,3.3,5.7,5.7,9.2,7.9c8.6,5.4,18.1,8.7,27.7,11.7
		c14,4.4,28.4,7.4,42.9,9.9c11.1,1.9,22.2,3.5,33.3,4.6c5.1,0.5,10.2,1.1,15.3,1.5c3.6,0.2,3.6,0.4,3.7,4.1
		c0.2,6.5,0.3,12.9,0.6,19.4c0.7,16.7,1.1,33.4,1.6,50.2c0.3,10.3,0.6,20.6,0.9,30.8c0,0.4-0.1,1,0.6,1.2c2.3-1,2.6-4,2.6-4v-5.5
		c0,0,0-0.4-0.1-1c0.2,0.3,0.3,0.5,0.6,0.3c0.3-4.6,0.6-9.3,1-13.9c0.9-11.7,1.8-23.5,2.8-35.2c0.5-5.9,0.6-11.9,1.6-17.8
		c0-0.2,0.1-0.4,0.1-0.6c0,0.2-0.1,0.3-0.1,0.5c1.6,0.3,2.6,1.4,2.9,2.8c0.4,1.5,0.5,3,0.6,4.6c0.2,8.5,0.3,17,0.6,25.4
		c0.6,15.9,0.7,31.8,1.1,47.6c0.1,6,0.4,11.9,0.6,17.9c0,0.5,0.1,0.9,0.7,1c2-1.2,3.2-2.8,2.9-5.3c-0.2-2.4-0.2-4.8-0.2-7.1
		c0.2-1,0.7-3.4,0.8-4.9c0.9-12.1,1.9-24.2,2.8-36.3c0.5-6.9,0.8-13.8,1.6-20.6c0.4-3,0.5-5.5,1-9.1c0.2-1.6,0.8-2.6,1.5-3.1
		c-0.4,0.5-0.8,1.1-1,1.8c-0.1,0.3-0.1,0.7-0.2,1.1c2.8,1.3,2.8,4,2.9,6.4c0.3,7.7,0.3,15.5,0.7,23.2c0.4,8.4,0.3,16.9,0.7,25.4
		c0.6,14.1,0.7,28.1,1,42.2c0,1.8,0,3.6,0.1,5.4c0,0.7-0.3,1.7,0.8,2.1c3-1.2,2.9-3.8,2.8-6.3c0.1-3.6,0.4-7.1-0.1-10.7
		c0.1-0.1,0.2-0.3,0.2-0.5c0.4-11.2,1-23.4,1.4-35c0.5-15.9,1-31.7,1.5-47.6c0.5-15.3,0.8-30.5,1.6-45.8c0-0.8,0.1-1.4,0.2-1.8
		c0,0.2,0,0.3,0,0.5c0,0.4,0.1,0.7,0.1,1.1c5.8,0.2,11.7,0.4,17.5,0.5c12.1,0.2,24.1-0.1,36.2-0.5c2.8-0.1,2.8,0,2.9,2.7
		c0.2,6.6,0.4,13.1,0.6,19.7c0.5,15.5,1,31,1.5,46.5c0.5,14.7,0.8,29.4,1.4,44c0.4,11.2,0.6,22.4,0.9,33.7c0,0.9-0.3,2.3,0.1,2.9
		c2.4,3.5,3.4-2.5,3.4-5.6c0-1.4-0.3-4.2-0.3-4.2s-0.1-1.1-0.2-2.4c0.1,0.9,0.2,2,0.3,3.2c0.4-0.6,0.4-1.9,0.4-2.7
		c0.2-9.7,0.9-19.3,1.4-28.9c0.7-12.1,1.1-24.3,1.7-36.4c0.1-2.3,0.5-6.2,1.3-8.8c-0.1,0.2-0.1,0.5-0.2,0.7c2.6,1.1,2.5,3.4,2.8,5.7
		c0.9,8.4,0.7,16.9,1.1,25.4c0.6,13.6,1,27.2,1.5,40.7c0.5,10.8,0.6,21.7,1,32.5c0.1,3.8-0.7,9.6,0.8,12c1.2,2.1,3-2,3.2-4.9
		c0.3-2.7-0.1-4.5-0.2-6.7c-0.1-2.1-0.1-4-0.3-6.2c0-0.4-0.1-0.8-0.1-1.3c0.2,0.1,0.7,0.4,0.8,0.2c0.3-2.4,0.3-4.9,0.3-6.5
		c0.4-11,1.5-29.3,2.1-43.9c0.4-8.8,0.7-17.6,1-26.5c0.1-1.9,0.3-3.8,0.8-5.6c0.1-0.1,0.1-0.3,0.2-0.4c3.6,1.1,4,4.4,4.1,7.4
		c0.3,7,0.3,14.1,0.6,21.1c0.5,9.2,0.2,18.4,0.7,27.6c0.5,8.8,0.3,17.7,0.7,26.5c0.6,14.2,0.7,28.4,1,42.6c0,1.7,0,3.3,0.1,5
		c0,0.7-0.3,1.7,0.8,2.1c2-1.3,2.9-3.1,2.8-5.4c0.2-4.4-0.3-8.8-0.4-13.3c-0.2-2.8-0.2-5.8-0.2-8.7c0.1,1.2,0.5,3,0.7,2.3
		c1.2-4.4,0.4-11.7,0.6-17.5c0.4-12.3,0.3-24.6,0.9-36.9c0.3-7.9,0.3-15.8,0.6-23.6c0.7-22.3,1.1-44.7,1.6-67
		c0.3-14.5,0.7-28.9,1-43.4c-0.1-3.8,1-3.2,4.2-3.7c3-0.4,6.1-0.7,9.2-0.9c-3.5,0.4-6.9,0.7-10.4,1.1c-2.7,0.3-3,0.7-3,3.6
		c4.3-0.4,8.9-1,13.2-1.5c14.7-1.7,29.4-3.6,43.9-6.3c15.4-2.9,30.7-6.3,45.4-11.5c6.5-2.3,13-4.8,18.9-8.6c2.5-1.2,4.8-2.7,6.5-5
		c0,0,0,0-0.1,0c0.2-0.2,0.4-0.4,0.7-0.5c1.3-1.2,2.6-2.4,3.9-3.7C704,392.4,704,386.6,698.9,381z M733.3,250.1
		c-5.2-1-10.3-2-15.5-3.1c-1.6-0.3-3.3-0.8-4.9-0.7c-3.1,0.1-5.2,1.8-5.8,4.8c-0.3,1.3-0.3,2.6-0.3,3.9c0,9.8,0,19.6,0,29.4
		c0,11,0,22,0,33c0,6.1,3,9.6,8.9,10.8c2,0.4,4,0.8,6,1.2c4.3,0.9,8.6,1.9,13,2.6c4.3,0.7,7-1.6,7.2-5.8c0.1-2.5,0-5,0-7.5
		c0-1-0.1-1.9-1.3-2.2c-3.7-0.8-7.3-1.8-10.9-2.2c-0.8,1.3,0.1,2.7-1,3.8c-2-0.4-4.1-0.8-6.2-1.3c-3-0.6-3-0.6-3-3.6
		c0-16.7,0-33.5,0-50.2c0-0.9-0.3-1.9,0.5-2.8c2.1,0.4,4.2,0.8,6.3,1.3c2.7,0.6,2.8,0.6,2.9,3.4c0.1,1.4,0.4,2.1,1.9,2.4
		c3.4,0.6,6.8,1.4,10.7,2.2c0-3.2-0.1-5.9,0-8.7C742.3,255.8,738.9,251.2,733.3,250.1z M424,412.5c-0.8-1.1-1.2-2.4-1.1-3.8
		c1-12.8,0.2-25.5,0.4-38.3c0-1.8,0.1-3.6,0.3-5.4c0.4-3.6,0-4-3.6-3.5c-11.5,1.7-22.9,3.6-34.3,5.4c-25.8,3.9-43,9.6-47.3,11.1
		c-0.1,0.1-0.2,0.1-0.3,0.2c-0.9,0.3-1.8,0.6-2.5,1.3c-2.6,3-1.8,6.2,0.8,9.5c1.6,2,3.6,3.5,5.7,4.8c5.7,3.6,12,5.9,18.4,7.9
		c11.7,3.7,23.8,6,35.9,7.8c9.1,1.3,18.1,2.8,27.3,3.1l2.4,0.3c0.3,0,0.5-0.1,0.7-0.4C426.4,412.8,425.6,412.8,424,412.5z
		 M469.3,261c-0.1,7,0,14.1,0,21.1c0,2.5,0.1,2.5,2.7,2.1c9.7-1.5,19.2-3.8,28.3-7.4c9.3-3.6,18-8.3,25-15.6c0.2-0.4,0.5-0.7,0.8-1
		l0,0c0.2-0.2,0.4-0.4,0.6-0.6l2.6-4.7c3.5-7.1,4.7-14.6,4.5-22.6c-0.2-8.2-3.7-14.4-10.2-19.1c-6.7-4.9-14.2-7.7-22.1-10
		c-10.3-3-20.9-4.7-31.6-5.9c-0.9-0.1-1.9-0.3-2.8-0.4c-0.1-0.7-0.2-1.4-0.2-2.1c0-0.3,0-0.5,0.1-0.7c-0.1,0.2-0.1,0.5-0.1,0.9
		c0,0.4,0.3,3.1,0.3,3.4c1.1,9,1,18,1.4,27.1C468.8,237.3,469.4,249.1,469.3,261z M316.8,307.8c1.5,1.3,3.8-0.1,5.8-0.3
		c4.1-0.3,3.5-0.8,3.5-3.8c0-16.5,0-33,0-49.5c0-1.1,0.2-2.2-0.4-3.3c-2.5,0.4-5.1,0.8-7.7,1.2c-1.2,0.1-1.7,0.7-1.6,1.9
		c0,0.8,0,1.7,0,2.5c0,15.3,0,30.6,0,45.9C316.4,304.2,315.6,306.7,316.8,307.8z"/>
	<path class="st3" d="M698.9,381c-2.4-2.7-5.3-4.8-8.4-6.6c-5.9-3.4-12.3-5.9-18.8-7.9c-11.2-3.5-22.7-5.7-34.2-7.4
		c-13.4-2-26.8-2.9-40.3-3.3c-9.2-0.3-18.4-0.5-27.6,0.4c-1.5,0.2-2.2-0.4-2.2-2c0.1-1.8,0-3.6,0.1-5.4c0.1-14.3,0.2-28.7,0.2-43
		c0-7.5-3.2-13.6-9.4-18c-3.8-2.7-8-4.2-12.4-5.4c-5.8-1.5-17.4-1.8-17.4-1.8s-4.4,0.2-6.8,0.1c-2-0.1-2.4-0.1-4.1-0.3
		c0.8-0.1,3.5-0.9,4.4-1c8.9-2.3,14.4-4.7,23.2-8.7c2.4-1.1,4.1-2.2,6.3-3.7l2.9-1.7c0.4-0.3,1.4-0.7,1.8-1l2.9-2.4
		c4.4-3.6,8.3-7.6,11.5-12.2c7.3-10.4,10-22,9.2-34.6c-0.5-8.4-3.5-15.8-9.1-22.1c-7.8-8.8-18-13.7-29-16.9c-15-4.5-30.4-5.8-46-5.8
		c-9.7,0-19.3,0.7-29,1.5c-2.2,0.2-2.9,0.5-3.3-2.8c-2.6-19.3-6.4-38.4-12.1-57c-1-3.3-3.3-9.8-3.3-9.8s-1.7,5.4-2.4,7.7
		c-6.6,21-11,39-15.1,61.6c-1,5.3-0.8,5.4-3.7,5.7c-16.2,2.9-32.3,6.2-48.2,10.4c-6.6,1.7-13.1,3-19.4,5.6c6.5,0,5.9,0,8.8-0.2
		c18-1.2,35.8-1.9,53.8-1.9c6.6,0,6.4-0.5,5.8,6.2c-0.6,8-1.1,14.3-1.2,22.4c-0.6,33,0.3,57.1,1.1,85.8c0.4,15,0.4,28.2,0.4,43.1
		c0,1.7,0,4.8,0,4.8l-0.1,2.1c-2.6,0-8.6,0.2-10.8,0.2c-11.6-0.1-23.1,0.4-34.7,1.1c-12.8,0.7-25.4,2.2-38,4.5
		c-10.8,1.9-21.5,4.5-31.6,8.8c-6.5,2.7-13.7,8-17.2,11.9l-0.7,0.9c-0.9,1.3-1.2,0.8-1.6,4.5c0.4,4.3,1,5.9,3.1,8.7
		c2.1,2.6,4.1,4.2,6.9,6.2c7.8,5.5,16.2,8.7,25.2,11.6c29.6,9.5,60.1,14,90.9,17c9.2,0.9,8.4-1,9,8.4c0,0.4,0,1.2,0,1.5
		c0.1,15.6,1,31.3,1.4,46.9c0.3,12.5,0.9,24.2,1,36.4c0,1.6,0.1,3.5,0.2,5.5c0.4,0.3,0.4,0.7,0.8,0.5c0.3-4.6,0.6-9.3,1-13.9
		c0.9-11.7,1.8-23.5,2.8-35.2c0.5-5.9,0.6-11.9,1.6-17.8c0.2-1.7,2-4.1,3.7-3.6c2.7,0.8,2.9,4.6,2.9,6c0.1,4.9,0.4,9.2,0.4,13.9
		c0.2,17.2,0.5,30.2,1,45.5c0.2,6,0.4,11.2,0.5,17.5c0.2,2.3,0.3,3.4,0.4,4.9c0.1,1.1,0.1,3.1,0.1,3.1s0.8-3.5,0.9-5.4
		c0.9-12.1,1.9-24.2,2.8-36.3c0.5-6.9,0.8-13.8,1.6-20.6c0.4-3,0.5-5.5,1-9.1c0.7-5.4,5.7-4.3,6,1c0.2,4.2,0.9,9.6,0.9,13.8
		c0.2,13.4,0.6,25.5,1,39c0.1,4.6,0.2,8.7,0.4,13.4c0.2,6.1-0.1,11.7,0.2,17c0,0.6,0,2,0.2,2.6c0.3,0.9,0.6,0.5,0.7,0
		c0.4-11.2,1-23.4,1.4-35c0.5-15.9,1-31.7,1.5-47.6c0.5-15.3,0.8-30.5,1.6-45.8c0.2-4.5,1.1-3.7,5.3-3.6c16.4,0.5,32,0.3,47.9,0.2
		c7.7,0,6.6-1.2,7.1,6.3c0.1,1.9,0.1,4.4,0.1,6.4c0,4.4,0.3,10,0.4,14.4c0.4,19.5,1.1,36.3,1.7,55c0.4,11.6,0.9,22.6,1,34.2
		c0.1,7,0.4,12.2,0.6,19.2c0,2,0.1,4.3,0.6,8.1c0.4-0.6,0.4-1.9,0.4-2.7c0.2-9.7,0.9-19.3,1.4-28.9c0.7-12.1,1.1-24.3,1.7-36.4
		c0.1-2.6,0.6-7.4,1.7-9.7c1.4-3.2,4.2-1.1,4.7-0.3c1.4,2.5,1,5.5,1,5.8c0.5,10.9,0.9,22.4,1.1,33.3c0.4,16.9,1.5,35,1.9,52
		c0.1,3.8,0.2,3,0.5,8c0,0,0.8,0.5,0.8,0.2c0.3-2.4,0.3-4.9,0.3-6.5c0.4-11,1.5-29.3,2.1-43.9c0.4-8.8,0.7-17.6,1-26.5
		c0.1-1.9,0.3-3.8,0.8-5.6c2.9-7.4,7.4-1.8,7.4,2.7c0,2.2,0.4,9.3,0.5,11.4c0.4,23.7,1,39.4,1.5,62.1l0.8,21l0.2,7.2
		c0.1,1.1,0.5,3.1,0.7,2.4c1.2-4.4,0.4-11.7,0.6-17.5c0.4-12.3,0.3-24.6,0.9-36.9c0.3-7.9,0.3-15.8,0.6-23.6
		c0.7-22.3,1.1-44.7,1.6-67c0.3-14.5,0.7-28.9,1-43.4c-0.1-3.8,1-3.2,4.2-3.7c4.6-0.7,9.4-0.9,14-1.4c21.8-2.4,43.5-5.6,64.8-10.8
		c12.8-3.1,25.8-7.4,36.7-12.4c2.8-1.3,4.9-2.7,7.9-4.3c0.3-0.3,0.6-0.6,1-0.8c1.3-1.2,2.6-2.4,3.9-3.7
		C704,392.4,704,386.6,698.9,381z M427.4,408.3c0,1.3,0.3,4.6-1.2,4.6l-2.4-0.3c-9.2-0.3-18.3-1.8-27.3-3.1
		c-12.1-1.8-24.2-4.1-35.9-7.8c-6.4-2-12.7-4.2-18.4-7.9c-2.1-1.4-4.1-2.9-5.7-4.8c-2.6-3.3-3.5-6.5-0.8-9.5c0.6-0.7,1.6-1,2.5-1.3
		c0.3-0.2,0.6-0.4,0.9-0.6c5.1-2.9,5.7-4.4,16.2-7.6c12.3-3.7,24.9-5.9,37.5-8c10.2-1.7,26.3-4,35.2-5.4c0,2.5,0.1,6.3,0.1,8.7
		C427.9,380,427.8,393.9,427.4,408.3z M467,198.4c0-0.3-0.4-3.1-0.3-3.4c0-1.1,0.4-1.7,2.2-1.4c17.2,2.5,35.3,4.5,51.1,12.2
		c1.8,0.9,5.8,3.3,7.4,4.6c7.6,6.2,9.9,11.6,9.6,23.4c-0.2,7.7-2.9,14.9-6.9,21.4c-1.2,1.8-2.7,3.3-4.1,5l0,0
		c-0.3,0.3-0.6,0.6-0.8,1c-7,7.3-15.7,12-25,15.6c-9.2,3.5-18.6,5.9-28.3,7.4c-2.6,0.4-2.7,0.4-2.7-2.1c0-7-0.1-14.1,0-21.1
		c0.2-11.8-0.4-23.6-0.9-35.5C468.1,216.5,468.2,207.5,467,198.4z M527.3,321.5c-0.3,15-0.1,30.3-0.2,44.9c0,14.9-0.4,29.2-0.7,44.1
		c-0.1,4.9,0.1,5.3-3.5,5.1c-1.2,0.1-2.4,0.2-3.6,0.2c-15.2,0-30.3,0-45.5,0c-6.8,0-6.7-0.1-6.7-6.6c0.1-13.1-0.1-26.3,0.1-39.4
		c0.1-12.8,0.3-25.6,0.8-38.3c0.5-10.6,0.3-21.3,0.7-31.9c0.1-2.4,0.3-4.8,0.5-7.1c0.1-4.4,0.4-4.2,3.5-3.9
		c15.1,1.4,25.4,3.8,38.8,9.1c3,1.2,8.5,4.6,10.1,6.4C526.8,310.1,527.5,311,527.3,321.5z M657.3,390.6c-3.5,3.6-8,5.6-12.5,7.5
		c-10.9,4.5-22.3,7.1-33.8,9.3c-12.6,2.4-25.2,4.1-37.9,5.2c-0.1,0-0.2,0-0.4,0c-1.9,0.1-4.5,1-5.5,0c-1-0.9-0.4-3.7-0.4-5.5
		c0-14.1,0.1-28.2,0.2-42.3c0-1.3,0.2-2.6,0.3-3.9c-0.1-4.3,0.5-4.2,3.6-3.8c21.7,2.9,42.6,5.7,64.1,10.9c5.4,1.3,12.8,3.5,17.9,6
		c4.5,2.3,5.5,3.2,7.3,5.5C662.3,382,662.2,386.7,657.3,390.6z"/>
	<path class="st4" d="M385.7,366.9c-30,4.5-48.4,11.4-48.4,11.4s8.8-5.8,13.1-7.2c11-3.6,22.4-5.8,33.8-7.8
		c14-2.5,40.8-6.5,40.8-6.5s0.1-0.3-0.1-1l0.1-2.2c-0.2-17.1-0.2-34.2-0.7-51.2c-0.3-12.2-0.3-24.4-0.8-36.5
		c-0.6-14.5-0.6-28.9-0.3-43.4c0.1-8.6,0.9-17.2,1.5-25.7c0.1-1.6-0.2-2.2-1.8-2.1c-10.3,0.1-20.5-0.3-30.8,0.5
		c-0.4,0-0.7,0.1-1.1,0.1c-10.7,0.1-21.5,0.8-32.2,1.6c-1.2,0.1-2.4,0-3.9,0c1.1-2.1,2.4-3.4,4.6-3.5c7.8,0.1,15.5-0.9,23.3-1.2
		c0.7,0,1.4-0.2,2.1-0.2c13.2-0.2,26.3-1,39.4-0.8c0.1,0,0.2,0,0.4,0c3.4,0.1,3.5,0.1,3.2,3.7c-0.3,4.3-0.5,8.6-0.9,12.9
		c-0.3,3.9-0.4,7.9-0.5,11.8c-0.2,15.9-0.3,31.8,0.3,47.7c0.4,10.8,0.2,21.5,0.7,32.3c0.8,17.8,0.4,35.6,0.6,53.4
		c0,0.8-0.1,1.7-0.2,2.5c0.4,10.8,0,21.7,0,32.5c0,7.4-0.4,14.7-0.5,22.1c0,2.6-0.1,3.1-3.4,2.4c-0.8-1.1-1.2-2.4-1.1-3.8
		c1-12.8,0.2-25.5,0.4-38.3c0-1.8,0.1-3.6,0.3-5.4c0.4-3.6,0-4-3.6-3.5C408.6,363.2,397.2,365.2,385.7,366.9z M446.1,543.5
		c-0.3-5.8-0.3-11.7-0.5-17.5c-0.5-9.8-0.3-19.6-0.7-29.3c-0.4-10.4-0.3-20.8-0.8-31.1c-0.1-1.7,0-3.4-1.1-4.8
		c-1.2-1.7-3.3-1.8-4.5-0.1c-0.5,0.7-1.1,1.6-1.1,2.5c1.6,0.3,2.6,1.4,2.9,2.8c0.4,1.5,0.5,3,0.6,4.6c0.2,8.5,0.3,17,0.6,25.4
		c0.6,15.9,0.7,31.8,1.1,47.6c0.1,6,0.4,11.9,0.6,17.9c0,0.5,0.1,0.9,0.7,1c2-1.2,3.2-2.8,2.9-5.3
		C446.3,552.7,446.6,548.1,446.1,543.5z M429.7,480.5c-0.3-10.6-0.6-21.3-0.9-31.9c-0.1-4.8-0.2-9.6-0.5-14.3
		c-0.1-1.8-0.4-2.8-2.5-2.9c-6.9-0.6-13.8-1.2-20.7-2.1c-17.2-2.1-34.3-4.7-51.2-8.6c-13.8-3.2-27.3-6.9-40.2-12.8
		c-5.6-2.6-10.8-5.5-15.2-9.9c-3.2-3.2-6-8.8-4.6-12.9c0.3-0.8-0.2-0.5-0.7-0.1c-2.8,2.2-3,10.4-0.2,14.2c2.5,3.3,5.7,5.7,9.2,7.9
		c8.6,5.4,18.1,8.7,27.7,11.7c14,4.4,28.4,7.4,42.9,9.9c11.1,1.9,22.2,3.5,33.3,4.6c5.1,0.5,10.2,1.1,15.3,1.5
		c3.6,0.2,3.6,0.4,3.7,4.1c0.2,6.5,0.3,12.9,0.6,19.4c0.7,16.7,1.1,33.4,1.6,50.2c0.3,10.3,0.6,20.6,0.9,30.8c0,0.4-0.1,1,0.6,1.2
		c2.3-1,2.6-4,2.6-4v-5.5c0,0-0.2-3.2-0.2-4.4C430.6,511.1,430.1,495.8,429.7,480.5z M520.4,302.9c-3.5-2.8-7.5-4.7-11.6-6.3
		c-11.8-4.6-22.9-6.8-36.6-8c-2.7-0.2-2.8-0.5-2.8,2.2c0,0.4-0.1,1.2,0,1.6c9.1,0.6,18.2,2.3,26.9,4.6c6.8,1.8,13.5,4.2,19.3,8.3
		c5.6,3.9,8.8,9,8.6,16.3c-0.4,11.3-0.5,22.7-0.5,34c-0.2,19.9-0.3,40.1-0.5,60.1c3.1,0,3.2-0.3,3.3-2.9c0.2-7.8,0.3-15.5,0.4-23.3
		c0.3-15.2,0.2-30.4,0.3-45.5c0-8.5-0.2-17,0.3-25.5C527.8,311.8,525.4,306.9,520.4,302.9z M575.8,361.4c13.2,1.8,26.4,3.7,39.5,6.2
		c10.2,2,20.3,4.1,30.1,7.8c3.5,1.3,6.9,2.8,9.7,5.2c2.6,2.1,4,4.7,2.7,8.2c-0.2,0.4-0.1,0.9-0.2,1.4c0.6-0.6,1.3-1.1,1.8-1.7
		c3.1-3.7,2.8-7.8-0.8-11.1c-2.3-2.1-5.2-3.4-8-4.6c-5.2-2.2-10.6-3.8-16-5.1c-20.9-5.1-42.2-7.9-63.5-10.8
		c-3.6-0.5-4.1,0.1-3.8,3.9C570.1,360.6,573.1,361.1,575.8,361.4z M467,197c0.9,0.1,1.9,0.3,2.8,0.4c10.7,1.1,21.3,2.9,31.6,5.9
		c7.8,2.2,15.4,5.1,22.1,10c6.5,4.7,10,10.9,10.2,19.1c0.2,7.9-1,15.4-4.5,22.6l-2.8,4.9l3.5-4.2c6.2-8.7,7.9-18.5,7-28.9
		c-0.7-7.8-4.8-13.3-11-17.6c-4.5-3.1-9.3-5.3-14.4-7.1c-13.9-4.9-28.4-7-43-8.7c-1.1-0.1-1.9,0.2-1.8,1.5
		C466.8,195.6,466.9,196.3,467,197z M444,107.8c-4.6,15-9.1,30.1-12.4,45.4c-1.7,7.9-3.5,16-4.4,24.1c1.9,0,3.1-0.9,3.1-3.1
		c0-1.5,0.4-3.1,0.7-4.6c3.9-22.9,9.9-45.2,17.1-67.2C445.7,103.4,444.7,105.5,444,107.8z M676.1,410.9
		c-22.7,8.5-46.3,12.8-70.2,16.3c-12.1,1.8-24.4,3-36.6,4.2c-2.7,0.3-3,0.7-3,3.6c4.3-0.4,8.9-1,13.2-1.5
		c14.7-1.7,29.4-3.6,43.9-6.3c15.4-2.9,30.7-6.3,45.4-11.5c6.5-2.3,13-4.8,18.9-8.6c2.5-1.2,4.8-2.7,6.5-5c-2.9,1.7-4.5,2.6-7.3,4.2
		C683.4,407.8,679.8,409.5,676.1,410.9z M977.5,432.3c0,9.5,0,19.1,0,28.6c0,2.1-0.6,18.6-0.6,18.6s-4.3-8.3-5.1-9.7
		c-2.5-4.9-6.1-9.3-9.9-13.3c-8.5-8.9-19.1-16-29.8-22c-10.8-6.1-22.3-10.9-33.8-15.5c-5.6-2.2-11.2-4.4-16.9-6.4
		c-6.2-2.2-15.2-7-21.8-7.1c-5.1,0-4.6,1.2-5.1,6.2c-0.6,6.1-1.3,12.2-2.2,18.3c-2,13.5-4.9,26.9-8.4,40.1
		c-6.6,25-15.7,49-27.8,71.9c-6,11.4-12.6,22.4-19.7,33c-2.1,3.2-4.7,7.4-6.9,10c-2,2.3-4,4.6-6.2,7.4c-12.9,16.3-26.5,31.6-41.6,46
		c-23.9,22.8-51.5,42-80.9,57c-91.4,46.8-201.9,52.3-297.3,13.8c-68.9-27.8-129.2-77-169.5-138.9c-16.2-24.9-29.5-52.4-38.7-80.7
		c-8.5-26.1-12.3-52.6-16.3-79.6c-1-6.8-3.3-5.1-9.2-3.2c-7.5,2.4-14.9,4.8-22.3,7.4c-13,4.7-25.9,9.9-38.3,16.1
		c-11.4,5.7-22.5,12.6-32.2,21c-5,4.2-9.6,9-13,14.6c-1.1,1.7-5.3,14.4-6.8,14.4c0.1,0-3.5-150.9,1.5-164
		c8.2-21.4,31.3-35.6,50.9-45.6c23.2-11.9,47.9-20.8,73-27.9c6.2-1.8,13.7-2.8,19.6-5.3c6.1-2.7,7.8-11.3,10.6-17.1
		c5.7-12,12.1-23.7,19.2-34.9c10.1-16,21.2-30.9,33.6-45.3c28.7-33.3,63.2-60.8,101.8-81.7c24.1-13.1,49.6-22.8,75.9-30.1
		c12.2-3.4,24.2-6.7,36.9-8.3c12.4-1.6,37.4-4,49.9-4.1c7.9,0,23.6,0.2,31.4,0.9c12.8,1.2,38.4,4.5,51.1,6.7
		c22.4,3.9,40.4,9.9,65.2,20.3c46.7,19.6,87.8,50,122.5,87c15.4,16.4,28.4,34,40.6,52.8c5.9,9,11.5,18.2,15.9,27.9
		c2.1,4.7,4.8,9.2,7,13.8c2.2,4.6,3.3,10.1,8.4,12.1c6.2,2.3,13.7,3.1,20.1,5c5.8,1.8,11.5,3.4,17.2,5.4c11.2,4,19.6,7.1,29.7,11.3
		c20.6,8.4,43.5,18.9,59.5,34.5c8.8,8.5,15.6,17.3,18,29.5c3.1,16.3,0.7,35.2,0.7,51.8C977.5,394.2,977.5,413.3,977.5,432.3z
		 M960,332.3c0.1-8.6-2.9-15.6-8.3-21.9c-4.8-5.6-10.4-10.3-16.3-14.5c-13.2-9.3-27.6-16.3-42.4-22.4c-25.7-10.6-52.2-18.5-79.2-25
		c-2.2-0.5-3.8-1.2-4.8-3.6c-19.7-47.6-48.7-88.7-86.9-123.3C691.7,94.2,657.4,73,619.4,57.9C586,44.6,551.3,37,515.5,34.8
		c-15.4-1-30.8-0.8-46.2,0.3c-16.1,1.2-32.1,3.3-47.8,6.9c-68.2,15.3-126.4,48.3-174.5,99c-28.7,30.2-51,64.7-66.9,103.2
		c-1,2.5-2.4,3.7-5,4.3c-26.5,6.3-52.6,14.1-77.9,24.4c-15.6,6.4-30.8,13.7-44.6,23.6c-6.7,4.8-13,10.2-17.9,16.9
		c-3.9,5.4-5.9,11.3-5.9,18c0.1,33.5,0.1,67,0.1,100.5c0,1.2-0.2,2.4,0.3,3.7c1.1-0.1,1.5-0.7,2.1-1.1c8.6-6.6,17.7-12.2,27.2-17.3
		c29.5-15.5,60.9-25.7,92.9-34.4c2.6-0.7,2.9-0.5,2.9,2.2c0.1,9.8,1,19.6,2.1,29.3c2.2,20,6.3,39.6,12.1,58.9
		c27.8,91.5,91.9,166.5,177.9,208.3c40.1,19.4,82.4,30.4,126.8,33.2c20.6,1.3,41.1,0.7,61.6-1.8c19.9-2.4,39.4-6.3,58.5-12.2
		c80.1-25,143-72.8,188.3-143.3c32.3-50.3,49.7-105.7,52.6-165.5c0.2-3.1,0.4-6.2,0.6-9.2c1.1-0.2,2.1,0,3,0.3
		c22.9,6.1,45.4,13.2,67.3,22.4c18.7,7.8,36.7,17,52.8,29.4c0.4,0.3,0.9,0.9,2,0.5c0-1.1,0-2.4,0-3.7
		C959.9,398.6,959.7,365.4,960,332.3z M560.9,613.1c0-0.2,0-0.5,0-0.7l-0.4-11.9c-0.5-18.3-1.1-37.2-1.6-55.4
		c-0.2-8.6,0-17.2-0.7-25.8c-0.1-1.5-0.2-3.1-1.1-4.5c-1.6-2.5-3.7-2.7-5.4-0.2c-0.3,0.5-0.6,1-0.8,1.5c3.7,1.1,4,4.4,4.1,7.4
		c0.3,7,0.3,14.1,0.6,21.1c0.5,9.2,0.2,18.4,0.7,27.6c0.5,8.8,0.3,17.7,0.7,26.5c0.6,14.2,0.7,28.4,1,42.6c0,1.7,0,3.3,0.1,5
		c0,0.7-0.3,1.7,0.8,2.1c2-1.3,2.9-3.1,2.8-5.4c0.2-4.4-0.3-8.8-0.4-13.3C561,624.5,561.4,618.7,560.9,613.1z M530.8,572.3
		c-0.5-14.8-0.9-29.6-1.4-44.4c-0.5-15.3-1-30.6-1.4-45.9c-0.4-13-0.7-26.1-1.1-39.1c-0.1-2.4-0.4-4.8-0.4-7.2
		c0-1.6-0.7-1.6-2.2-1.6c-1.4,0-2.9,0-4.3,0c-14.9,0.3-29.9,0.3-44.8,0c-2,0-4.1-0.2-6.1-0.4c-2-0.2-2.6,0.7-2.4,2.5
		c0,0.4,0.1,0.7,0.1,1.1c5.8,0.2,11.7,0.4,17.5,0.5c12.1,0.2,24.1-0.1,36.2-0.5c2.8-0.1,2.8,0,2.9,2.7c0.2,6.6,0.4,13.1,0.6,19.7
		c0.5,15.5,1,31,1.5,46.5c0.5,14.7,0.8,29.4,1.4,44c0.4,11.2,0.6,22.4,0.9,33.7c0,0.9-0.3,2.3,0.1,2.9c2.4,3.5,3.4-2.5,3.4-5.6
		c0-1.4-0.3-4.2-0.3-4.2S530.9,573.9,530.8,572.3z M547.1,270c-8.1,3.8-16.3,7.2-25,9.4c-1.4,0.3-2.7,0.8-4.1,1.1
		c3.6,0.3,4.7,0.4,8.6,0.2l5.1-2c5.6-2.2,11.1-4.6,16.2-8c2.1-1.2,10.5-8,10.5-8S549.2,268.7,547.1,270z M461.7,565.8l-0.3-5.2
		c-0.2-4.2-0.3-6.8-0.3-12.7c-0.4-13.5-0.9-26.9-1.3-40.4c-0.2-6.6-0.2-13.1-0.4-19.7c-0.1-3.1-0.3-6.2-0.7-9.3
		c-0.2-1.4-0.9-2.9-2.6-3.1c-1.7-0.3-2.5,1-3.1,2.4c-0.1,0.3-0.1,0.7-0.2,1.1c2.8,1.3,2.8,4,2.9,6.4c0.3,7.7,0.3,15.5,0.7,23.2
		c0.4,8.4,0.3,16.9,0.7,25.4c0.6,14.1,0.7,28.1,1,42.2c0,1.8,0,3.6,0.1,5.4c0,0.7-0.3,1.7,0.8,2.1c3-1.2,2.9-3.8,2.8-6.3
		C462.1,573.4,462.5,569.6,461.7,565.8z M545.8,600.2c-0.9-9.5-0.7-19.1-1.2-28.6c-0.7-15-1.1-30.1-1.7-45.1
		c-0.3-7.4-0.5-14.8-0.8-22.2c0-0.7,0-1.4-0.2-2.1c-0.4-2.3-1.7-4-3.1-3.9c-2.2,0.1-2.5,1.8-2.9,3.5c2.6,1.1,2.5,3.4,2.8,5.7
		c0.9,8.4,0.7,16.9,1.1,25.4c0.6,13.6,1,27.2,1.5,40.7c0.5,10.8,0.6,21.7,1,32.5c0.1,3.8-0.7,9.6,0.8,12c1.2,2.1,3-2,3.2-4.9
		c0.3-2.7-0.1-4.5-0.2-6.7C546,604.3,545.9,602.4,545.8,600.2z"/>
	<path d="M132.6,301.5c0,16.5,0,33,0,49.5c0,3.3,0,3.3-3.3,4.4c-1.9,0.6-3.7,1.6-5.7,1.7c-0.7-1.2-0.4-2.3-0.4-3.3
		c0-16.4,0-32.7,0-49.1c0-3.4,0-3.4,3.1-4.5c1.9-0.7,3.8-1.3,5.9-2C132.8,299.6,132.6,300.6,132.6,301.5z M962.2,432.4
		c0,1.3,0,2.5,0,3.7c-1.1,0.3-1.5-0.2-2-0.5c-0.1-0.1-0.3-0.2-0.4-0.3c0,0,0,0.1,0,0.1c-1.1,0.3-1.5-0.2-2-0.5
		c-16.1-12.4-34.1-21.5-52.8-29.4c-10.8-4.5-21.8-8.6-32.9-12.2c-10.6-3.4-21.2-6.5-32-9.4c-0.9-0.2-1.8-0.5-3-0.3
		c-0.2,3.1-0.5,6.1-0.6,9.2c-2.9,59.8-20.3,115.2-52.6,165.5c-45.3,70.5-108.2,118.3-188.3,143.3c-19.1,6-38.6,9.9-58.5,12.2
		c-20.5,2.5-41,3.1-61.6,1.8c-28.4-1.8-56-6.9-82.6-15.5c-15.8-4.9-31.3-11.1-46.5-18.5c-86-41.8-150.1-116.8-177.9-208.3
		c-5.8-19.2-9.9-38.9-12.1-58.9c-1.1-9.7-2-19.5-2.1-29.3c0-0.7,0-1.2-0.1-1.6c-0.1,0-0.3,0.1-0.4,0.1c-32,8.7-63.5,18.9-92.9,34.4
		c-9.5,5-18.7,10.7-27.2,17.3c-0.6,0.4-1,1-2.1,1.1c-0.3-0.6-0.3-1.2-0.4-1.8c-0.5,0.4-1,0.9-2,1.1c-0.6-1.3-0.3-2.5-0.3-3.7
		c0-33.5,0.1-67-0.1-100.5c0-6.8,2-12.7,5.9-18c4.9-6.8,11.2-12.1,17.9-16.9c13.8-9.9,29-17.2,44.6-23.6
		c25.3-10.4,51.4-18.1,77.9-24.4c2.6-0.6,4-1.8,5-4.3c16-38.5,38.2-73,66.9-103.2c48.1-50.7,106.3-83.7,174.5-99
		c15.7-3.5,31.7-5.7,47.8-6.9c15.4-1.1,30.8-1.3,46.2-0.3c29.2,1.9,57.7,7.3,85.4,16.4c7,2.3,13.9,4.7,20.8,7.5
		c38.1,15.1,72.4,36.3,102.7,63.8c38.2,34.5,67.3,75.6,86.9,123.3c0.6,1.5,1.5,2.4,2.7,2.9c16.8,4.1,33.4,8.7,49.8,14.1
		c10.6,3.5,21.2,7.3,31.5,11.6c14.8,6.1,29.2,13.1,42.4,22.4c6,4.2,11.6,8.9,16.3,14.5c5.4,6.3,8.3,13.3,8.3,21.9
		C962.1,366.2,962.3,399.3,962.2,432.4z M96.5,301.8c0-1,0.2-2.1-0.4-3.3c-3.4,1.3-6.5,2.6-9.8,3.7c-1.7,0.6-2.3,1.5-2.1,3.2
		c0.1,0.8,0,1.7,0,2.5c0,9.1,0,18.2,0,27.3c0,1,0.4,2.3-1,2.8c-2.4,0.8-4.6,2.4-7.5,2.5c0-11.3,0-22.4,0-33.7
		c-3.2,0.8-6,2.2-8.8,3.4c-3.3,1.3-3.3,1.4-3.3,4.8c0,24.9,0,49.7,0,74.6c0,1-0.2,2.1,0.4,3.4c3.7-1.5,7.3-3,10.9-4.4
		c1.1-0.4,0.9-1.3,0.9-2.1c0-2.6,0-5.3,0-7.9c0-7.5,0-15.1,0-22.6c0-0.9-0.4-2.1,0.8-2.5c2.5-1,4.8-2.3,7.8-2.7
		c0,11.3,0,22.4,0,33.7c3.4-0.6,6.3-2.1,9.3-3.2c3.1-1.2,2.9-0.3,2.9-4.3C96.5,351.8,96.5,326.8,96.5,301.8z M145.1,292.7
		c0-1.6,0.1-3.1-0.1-4.7c-0.5-3.4-3-5.2-6.4-4.6c-0.8,0.1-1.6,0.4-2.4,0.7c-5.4,1.8-10.8,3.7-16.3,5.6c-6.5,2.3-9.2,6.1-9.2,12.9
		c0,20.8,0,41.6,0,62.4c0,1.1-0.1,2.2,0.1,3.2c0.6,2.9,2.8,4.5,5.8,4.1c0.9-0.1,1.9-0.5,2.8-0.8c5.6-1.9,11.3-3.9,16.9-5.8
		c6.1-2.1,8.7-5.9,8.7-12.4c0-10.4,0-20.8,0-31.2C145.1,312.3,145.1,302.5,145.1,292.7z M706.8,184.4c3,1.9,5.7,4.2,8.6,6.4
		c10.6,8,20.6,16.7,30,26c6.4,6.3,13.1,12.3,18.7,19.3c2.7,3.4,6.4,3.5,10.8,3.9c-1.5-4-3.5-6.9-5-10c-4.1-8.1-8.9-15.8-13.8-23.4
		c-9.6-15.1-21-28.9-32.9-42.2c-1.3-1.4-2.6-2.8-4.1-4c-2.2-1.8-5-1.3-6.3,1.2c-3.1,5.9-5.3,12.2-7.4,18.6
		C704.7,181.8,705.1,183.3,706.8,184.4z M625.6,105c0.3,1.4,0.9,2.7,1.2,4.1c2.3,10.3,5.1,20.5,6.8,31c0.4,2.1,1.5,3.3,3.4,4.1
		c4.3,1.8,8.6,3.6,12.7,5.7c11.6,5.7,22.8,11.9,33.8,18.7c2,1.2,2.1,1.2,3-1c2.5-6.7,5.1-13.4,8.4-19.7c0.7-1.3,1.1-2.7,1-3.3
		c-0.2-4.2-1.3-7.1-4-9.3c-1.4-1.1-2.8-2.3-4.2-3.3c-9.6-7.3-19.4-14.2-29.7-20.5c-7.8-4.8-15.8-9.3-24.1-13.3
		c-1.4-0.7-2.8-1.2-4.4-0.5C626.1,99,624.7,101.3,625.6,105z M535.7,75c-0.1,1.2,0.3,2.3,1,3.5c1.6,2.5,3,5.2,4.4,7.8
		c5,9.4,9.3,19.1,12.4,29.3c0.6,2,1.5,3.3,3.8,3.7c16,2.8,31.6,7,47,12.2c1.6,0.5,3.6,2.2,4.9,0.8c1-1.1-0.2-3.4-0.6-5
		c-2.5-9.9-5.1-19.8-7.7-29.7c-0.5-1.7-1.3-3.4-1.7-5.1c-1.9-7.8-7.2-11.9-14.7-14c-13.9-3.7-27.9-7-42.2-9.2
		C538.6,68.6,535.7,71.1,535.7,75z M194.2,269.7c0-1,0.3-2.1-0.5-3.2c-2.8,0.8-5.7,1.5-8.6,2.4c-3.4,1-3.4,1-3.4,4.5
		c0,20.4,0,40.9,0,61.3c0,0.8,0,1.7,0,2.5c0,0.9-0.1,1.6-1.2,1.9c-2.6,0.7-5.2,1.8-8.3,2.1c0-22.8,0-45.5,0-68.4
		c-3.6,0.6-6.7,1.9-9.9,2.8c-2.7,0.8-2.7,0.8-2.7,3.6c0,23.3,0,46.6,0,70c0,5.8,2.8,7.8,8.3,6.3c5.6-1.6,11.2-3.3,16.8-4.9
		c7-2.1,9.5-5.2,9.5-12.4C194.3,315.4,194.3,292.6,194.2,269.7z M806,365.3c-0.4-5.7-0.1-11.4-1.1-17.1c-0.6-3.3-0.4-6.7-1-9.9
		c-0.6-3.2-0.6-6.5-2.3-9.6c-5.7-10.3-11.3-20.8-17.7-30.7c-0.9-1.4-1.5-2.7-1.4-4.3c3.3-9.7,6.6-19.3,9.9-29.1
		c-3.7-1-7.1-2-10.6-2.9c-2.6-0.7-2.6-0.6-3.5,2c-2,5.5-3.9,11-5.9,16.5c-2.1,2-2.3,4.9-3.2,7.4c1.1-4,0.7-7.9-0.3-11.7
		c0-5.1-0.1-10.2-0.1-15.4c0-0.9,0.2-2.1-1.1-2.3c-3.8-0.8-7.5-2.2-11.3-2.5c-0.7,1.3-0.1,2.6-0.5,3.7c-1.3-0.7-2.2-1.8-3.1-2.9
		c-3.4-3.8-6.7-7.8-10.2-11.5c-11.4-11.9-23.3-23.3-36.4-33.4c-1.9-1.5-3.3-3.7-5.9-4.1c-1.1,3.9-1.1,7.7-1.1,11.5
		c0,2.4,0.1,4.8,0,7.2c-0.1,2.5-0.5,3.1-2.9,3c-5-0.2-9.9-1-14.7-2.4c-2.5-0.8-3.8-2.7-3.9-5.4c-0.3-8.8,0.2-17.7,1.8-26.3
		c0.4-2.1-0.2-3.1-1.8-4.1c-4.3-2.6-8.5-5.3-12.8-7.9c-6.3-3.9-13-7.1-19.4-10.7c-2.2-1.2-4.4-2.7-7.2-2.9c0.8,7.2,1.7,14,2.3,20.9
		c0.2,2.6,0.2,5.2,0.6,7.8c0.9,5.8,0.7,11.6,1.2,17.4c0.3,3.6-0.7,4.5-4.4,4.4c-4.1-0.1-8-1-12-1.8c-4.5-0.9-5.8-2.7-5.8-7.3
		c0.1-4.3-0.7-8.5-0.9-12.8c-0.2-2.9-0.4-5.9-0.7-8.9c-0.6-5.4-1.3-10.9-2-16.3c-0.6-4.2-1.1-8.5-2-12.7c-0.3-1.4-1-2.1-2.2-2.5
		c-1.9-0.7-3.9-1.2-5.8-1.9c-14.3-5.4-29-9.6-43.9-12.7c-2.7-0.6-3.2-0.1-2.7,2.5c1.2,6.6,1.5,13.3,1.4,19.9c0,0.8,0.4,1.7-0.7,2.3
		c-5.3-2.2-10.7-4.5-16.4-6c-3.8-1-5-2.3-5.2-6.2c-0.2-4.5-1.1-9-1.6-13.5c-0.4-3.6-1.3-4.3-4.9-4.7c-7.1-0.7-14.2-1.9-21.3-2.1
		c-7-0.2-14-1.2-21.1-0.9c-2,0.1-4.1-0.1-6.1,0c-3.3,0.1-6.7-0.4-10,0.4c-1.7,0.4-2.2-0.8-2.4-2c-1-5.8-2.8-11.3-4.1-17
		c-0.6-2.6-0.4-2.9,2.3-3c15.5-0.1,31.1-0.4,46.6,0.7c0.5,0,1,0.1,1.4,0.2c3.2,1,6.7,0,9.9,1.1c1.4,0.5,1.9-0.5,1.3-1.9
		c-1.1-2.6-2.1-5.3-3.3-7.9c-4.5-9.8-10-19-16.4-27.7c-2.5-3.4-5.3-6.4-7.9-9.7c-1-1.2-2.2-1.7-3.8-1.6c-7.4,0.3-14.8-0.1-22.2,0.6
		c-7.3,0.7-14.7,1.3-22,2.3c-9,1.2-17.8,2.9-26.7,4.9c-14.6,3.3-28.8,7.7-42.7,13.2c-15.2,5.9-29.8,12.9-43.8,21.2
		c-11.4,6.8-22.4,14.1-32.8,22.3c-8.5,6.7-16.9,13.6-24.6,21.3c-9.5,9.4-18.9,19-27.2,29.4c-2.1,2.6-2.3,5.2-0.5,7.1
		c1.9,2,4.4,2,7.1-0.1c8.5-6.4,17.2-12.5,26.1-18.2c7.1-4.5,14.2-8.8,21.6-12.6c8.8-4.5,17.6-9.1,26.7-13.1
		c8.8-3.8,17.6-7.4,26.6-10.6c17-6,34.3-10.8,52-14.2c3.2-0.6,6.4-1.5,9.9-1.4c-1.8,7.3-4.1,14.2-5.6,21.3c-0.3,1.2-1.3,1.9-2.6,2.1
		c-2.8,0.5-5.6,1-8.4,1.7c-13.5,3.4-27,7.1-40.1,11.8c-17.6,6.4-34.5,14.1-50.8,23.1c-12.9,7.1-25.3,14.9-37.1,23.6
		c-9.2,6.8-18.2,13.9-26.7,21.5c-8,7.2-15.3,15.1-21.6,23.8c-2.5,3.4-5.5,6.6-7,10.7c0.1,0.1,0.2,0.1,0.3,0.2l-7.1,1.7
		c-5.1,1-9,3.7-9.7,8.8c-1.1,7.6,0.1,15.3,0.1,22.9c0,0.7,0,1.4,0,2.2c0,0.4,0,0.7,0.1,1.1c0,0.1,0,0.3,0.1,0.4
		c0,0.2,0.1,0.4,0.1,0.6c0,0.2,0.1,0.3,0.1,0.4c0.1,0.2,0.1,0.3,0.2,0.5c0.1,0.2,0.1,0.3,0.2,0.5c0.1,0.1,0.1,0.3,0.2,0.4
		c0.1,0.2,0.2,0.3,0.3,0.5c0.1,0.1,0.1,0.2,0.2,0.3c0.1,0.2,0.3,0.3,0.4,0.5c0.1,0.1,0.2,0.1,0.2,0.2c0.2,0.2,0.3,0.3,0.5,0.4
		c0.1,0.1,0.1,0.1,0.2,0.1c0.2,0.2,0.4,0.3,0.7,0.4l-5.9-0.6c-0.8,2.1-1.3,4.3-1.9,6.5c-3.1,12.2-4.2,24.6-5,37.1
		c-0.5,8.2,0.4,16.5,0.9,24.7c0.4,8,1.2,16.1,2.5,24.1c1.3,7.9,2.4,15.7,4.2,23.5c3.2,14.1,7,28,12.1,41.5
		c3.2,8.6,6.6,17.1,10.6,25.4c3.7,7.6,7.4,15.3,11.6,22.6c3.5,6,6.9,12,11,17.6c2.3,3.2,6,4.4,9.7,3.2c3.9-1.2,5.7-4,6.8-7.7
		c5.1-18.2,12.2-35.7,20.4-52.7C295,454,301.2,443,308,432.5c2.6-4,4-4.7,8.5-3.1c2.9,1,5.8,2.1,8.8,3.1c4.5,1.6,5.6,4.6,3.1,8.6
		c-8,12.7-15.6,25.7-21.8,39.4c-4.4,9.8-8.5,19.7-12.1,29.8c-4.1,11.7-7.5,23.6-10.1,35.8c-1.8,8.4,0.3,15.7,5.4,22.5
		c2.5,3.4,5.9,5.9,8.8,8.8c7.6,7.7,16,14.7,24.5,21.4c15.8,12.4,32.8,23,50.6,32.3c9.1,4.7,18.5,9,28.1,12.6
		c9.2,3.4,17.9,2.1,25.7-3.9c6-4.6,11.7-9.4,17.4-14.3c7.3-6.2,14.3-12.7,21.2-19.3c7.4-7,14.4-14.3,21.3-21.8
		c4.6-5.1,9.2-10.3,13.6-15.6c2.1-2.6,4.3-5.1,6.6-7.5c1.8-1.9,4.2-1.2,4.9,1.3c0.3,1,0.2,2.1,0.3,3.2c0.2,4.1-0.3,8.1,0.4,12.2
		c1,5.9-0.3,11.3-4.3,15.7c-6.3,7-12.8,13.9-19.3,20.7c-2.8,2.9-5.9,5.5-8.8,8.4c-7.6,7.4-15.5,14.6-23.6,21.4
		c-3.1,2.6-4,6.1-3.1,9.7c0.8,3.3,3.2,5.7,6.6,6.4c5,1,10.1,1.8,15.1,2.4c5.7,0.7,11.4,1.1,17,1.7c6.8,0.7,13.6,0.1,20.3,1.1
		c4.1,0.6,8.3-0.3,12.5-0.4c10.3-0.2,20.4-1.1,30.6-2.3c7-0.8,13.9-1.9,20.8-3.2c16.5-3.3,32.7-7.6,48.5-13.4
		c13.9-5.1,27.6-10.8,40.2-18.7c8.5-5.3,16.6-11.3,24-18c5.1-4.7,9.9-9.7,14.5-14.9c7.8-8.9,14.4-18.7,20.1-29.1
		c6.3-11.7,11-24.1,14.3-37c2.6-10.4,4.8-20.9,6.1-31.5c0.6-4.5,1.1-9,1.5-13.5c0.6-5.3,1.1-10.7,1.1-16c0.1-8.7,0.3-17.4-0.4-26.1
		c-0.5-6.6-1-13.3-1.8-19.9c-1.2-9.8-3-19.5-5.4-29.1c-3.3-13.3-7.4-26.4-12.5-39.1c-1.5-3.7,0.1-7.8,5.1-7.1
		c4.5,0.7,8.9,1.4,13.4,2.2c2.4,0.5,4,1.9,4.8,4.3c0.8,2.5,1.9,4.9,2.7,7.4c3.6,11.2,7,22.5,9.4,34.1c1.4,6.9,2.8,13.7,3.7,20.7
		c0.5,4.2,1,8.5,1.5,12.7c0.6,4.7,1.2,9.5,1.2,14.2c0.1,15.7,0.7,31.5-1.2,47.2c-0.8,6.8-1.6,13.7-2.8,20.5
		c-0.9,4.9-1.4,9.9-2.9,14.7c-0.1,0.3-0.1,0.7-0.1,1.1c-0.1,1.4,0.6,2.3,1.8,2.9c1.2,0.6,2-0.2,2.8-1c0.5-0.5,0.9-1.1,1.2-1.7
		c1.8-3.3,3.6-6.5,5.2-9.8c3.5-6.9,6.6-14,9.6-21.2c5.7-13.3,10.2-27,13.8-41c3.3-12.7,5.8-25.5,7.3-38.5c0.9-8.3,2.1-16.5,2.1-24.9
		c0-1,0-1.9,0.1-2.9C806.9,379.9,806.6,372.6,806,365.3z M840.8,280.7c0.1-1.7-0.7-2.3-2.1-2.7c-2.9-0.8-5.7-1.8-8.5-2.6
		c-7.6-2.3-15.3-4.6-22.8-6.8c-0.7,0.8-0.6,1.6-0.6,2.3c0,25.6,0,51.2-0.1,76.7c0,2.2,0.9,2.8,2.7,3.3c9.6,2.8,19.2,5.8,28.8,8.7
		c0.8,0.2,1.5,0.7,2.6,0.2c0-2.9,0-5.9,0-8.8c0-3.2,0-3.2-3-4.1c-5.5-1.7-10.9-3.4-16.4-5.1c-1.1-0.3-2.2-0.6-2.2-2.3
		c0.1-6.6,0-13.1,0-19.9c5.5,1,10.4,3.3,15.9,4.4c0-3.6-0.1-6.9,0-10.2c0.1-1.7-0.5-2.5-2.2-3c-3.9-1-7.8-2.3-11.6-3.5
		c-1-0.3-2.1-0.4-2.1-1.9c0-6.7,0-13.3,0-20.4c7.3,2.2,14.2,4.3,21.5,6.5C840.8,287.6,840.7,284.2,840.8,280.7z M883.1,293.1
		c-9.6-3.3-19.2-6.7-28.7-9.9c-0.8-0.3-1.7-0.9-2.8-0.3c0,1.3,0,2.6,0,3.9c0.1,2.7-1.1,6.1,0.5,8c1.4,1.7,4.7,1.9,7.2,2.8
		c3.1,1.1,3.1,1.1,3.1,4.5c0,20.4,0,40.9,0,61.3c0,0.8,0,1.7,0,2.5c-0.1,1.1,0.2,1.8,1.4,2.1c3.5,1.2,7,2.4,11.2,3.9
		c0-23.3,0-45.9,0-68.8c3.8,1.3,7.1,2.5,10.7,3.7c0-3.7-0.2-6.9,0.1-10.1C885.8,294.5,884.9,293.7,883.1,293.1z M930,319.7
		c-0.1-5.6-2.9-9.5-8-11.6c-5-2.1-10-4-15-5.9c-1.3-0.5-2.7-1.1-4-1.5c-3.6-1-6.2,0.6-6.7,4.3c-0.1,0.9-0.1,1.9-0.1,2.9
		c0,6.2,0.1,12.4,0,18.6c-0.1,5,1.4,9.3,4.9,13c5.1,5.5,10,11.3,15,16.9c0.8,0.9,1.8,1.6,1.8,3c0,5.1,0,10.2,0,15.5
		c-2.7-0.4-4.8-1.7-7-2.4c-1.6-0.5-2.4-1.3-2.2-3.1c0.1-1,0.3-2.2-1.1-2.7c-3.7-1.3-7.2-3-11.2-4.1c0,2.9,0,5.4,0,7.9
		c0,6.1,2.8,10,8.5,12.3c5.6,2.3,11.3,4.5,17,6.8c0.8,0.3,1.6,0.6,2.4,0.8c3.1,0.7,5.4-1,5.9-4.1c0.1-0.8,0.1-1.7,0.1-2.5
		c0-6.7-0.1-13.4,0-20.1c0.1-4.7-1.4-8.6-4.6-12.1c-5.1-5.7-10-11.6-15.1-17.3c-1.3-1.4-1.9-2.8-1.9-4.8c0.1-3.8,0-7.6,0.1-11.5
		c0-0.8-0.3-1.7,0.8-2.3c2,0.8,4.1,1.6,6.2,2.4c1.5,0.5,2.4,1.3,2.2,3.1c-0.1,1.2-0.2,2.3,1.4,2.9c3.5,1.3,6.8,2.7,10.9,4.4
		C930.1,325.2,930.1,322.5,930,319.7z"/>
</g>
</svg>
